<svg xmlns="http://www.w3.org/2000/svg" viewBox="0 0 510 96"><path fill="#FFF" d="M10.5 9.7c2.7 0 3.9 1.2 3.9 3.8v58.7c0 2.5-1.2 3.7-3.9 3.7h-.9c-2.6 0-3.7-1.2-3.7-3.7V13.5c0-2.6 1.1-3.8 3.7-3.8h.9zm19.6 18.1c2.5 0 3.7 1.1 3.7 3.7v4.8c2.1-4.2 7.5-9.4 15-9.4 9.5 0 17.9 5.1 17.9 19.7v25.5c0 2.6-1.1 3.7-3.7 3.7h-.8c-2.4 0-3.6-1.1-3.6-3.7V46.9c0-10-4.7-13.2-11.6-13.2-8 0-13.2 6.8-13.2 17.1v21.3c0 2.6-1.2 3.7-3.8 3.7h-.7c-2.6 0-3.7-1.1-3.7-3.7V31.5c0-2.6 1.3-3.7 3.7-3.7h.8zm78-14.7c0 1.7-.9 3.3-3.1 4.1-1.3-2.1-3.7-4.1-8.4-4.1-6.6 0-9.6 5.7-9.6 14v1h12c2.5 0 3.7 1.2 3.7 3.3 0 2.2-1.3 3.2-3.7 3.2H87v38c0 2.6-1.1 3.6-3.7 3.6h-.5c-2.7 0-3.8-1-3.8-3.6v-38h-5c-2.5 0-3.7-.5-3.7-3.2 0-2.6 1.2-3.3 3.7-3.3h5.1V25c0-12.2 7.2-19.1 18.6-19.1 5.9 0 10.4 3 10.4 7.2zM150 51.9c0 16.7-11.4 24.8-23.9 24.8-12.5 0-23.9-8.1-23.9-24.8 0-16.7 11.4-25 23.9-25 12.5 0 23.9 8.3 23.9 25zm-39.5-.1c0 12 6.6 18.2 15.6 18.2s15.6-6.2 15.6-18.2c0-11.9-6.6-18.1-15.6-18.1s-15.6 6.2-15.6 18.1zm121.6-29.9c0 2.9-2.4 4.8-5.9 4.8-2.1-6.9-7.9-10.4-17.9-10.4-11.9 0-23.4 7.7-23.4 26.2 0 18.3 11.4 26.7 23.4 26.7 10.6 0 16.5-3.9 19.2-11 3.1 0 5 2 5 4.8 0 6.1-9.4 13.7-24.1 13.7-17.2 0-32.3-11.2-32.3-34.1 0-22.9 15.1-33.8 32.3-33.8 14.5-.1 23.7 6.9 23.7 13.1zm11.3-14.6c2.5 0 3.7 1.1 3.7 3.7v26.4c2.1-5.2 7.3-10.4 15-10.4 10 0 18 5 18 19.6V72c0 2.6-1.1 3.7-3.7 3.7h-.8c-2.4 0-3.6-1.1-3.6-3.7V47.2c0-10.1-4.7-13.6-11.7-13.6-8.5 0-13.1 8-13.1 17.9v20.6c0 2.6-1.2 3.7-3.8 3.7h-.7c-2.6 0-3.7-1.1-3.7-3.7v-61c0-2.6 1.3-3.7 3.7-3.7h.7zm82.2 38.8v19.3c0 4.4 2.4 6.3 4.1 6.8-.9 2.2-3.1 3.7-5.5 3.7-4 0-6.4-3.2-6.4-7.6-2.6 3.5-7.6 8.2-15.9 8.2-10.7 0-17-6-17-14.8 0-9.5 7.5-15.7 19.7-15.7 7 0 10.3 1.7 12.8 2.5v-4.3c0-8.2-4.4-10.9-12.2-10.9-5.9 0-10.7 2.8-13.5 6.6-2.2-.3-4.1-1.4-4.1-3.8 0-4.9 7.7-9.4 17.2-9.4 13.4.2 20.8 6.4 20.8 19.4zM293 61.5c0 5.2 3.9 8.7 10.4 8.7 8.1 0 14.2-6.1 14.2-13.4v-1.9c-3.3-1.5-7.7-2.7-12.6-2.7-7.5 0-12 3.7-12 9.3zm45.7-54.2c2.5 0 3.7 1.1 3.7 3.6v61.2c0 2.6-1.2 3.7-3.7 3.7h-.7c-2.7 0-3.7-1.1-3.7-3.7V11c0-2.5 1-3.6 3.7-3.6h.7zM414 27.7c2.5 0 3.7 1.1 3.7 3.7v4.8c2.1-4.2 7.5-9.4 15-9.4 9.5 0 18 5.1 18 19.7v25.6c0 2.6-1.1 3.7-3.7 3.7h-.8c-2.4 0-3.6-1.1-3.6-3.7V46.8c0-10.1-4.7-13.2-11.6-13.2-8 0-13.2 6.8-13.2 17.1v21.4c0 2.6-1.2 3.7-3.8 3.7h-.7c-2.6 0-3.7-1.1-3.7-3.7V31.4c0-2.6 1.3-3.7 3.7-3.7h.7z"/><path fill="#0C3E5B" d="M383.8 20.2c-13.9-3.6-28.1 4.7-31.7 18.6-3.6 13.9 13.5 51.3 13.5 51.3s33.2-24.3 36.8-38.2c3.7-13.9-4.7-28.1-18.6-31.7zm7.4 28.8c-2 7.7-9.8 12.3-17.5 10.3-7.7-2-12.3-9.8-10.3-17.5 2-7.7 9.8-12.3 17.5-10.3 7.7 2 12.3 9.8 10.3 17.5z"/><g fill="#0C3E5B"><path d="M461 74.4c0 .9-.7 1.5-1.5 1.5s-1.5-.6-1.5-1.5.7-1.5 1.5-1.5 1.5.6 1.5 1.5z"/><path d="M457.5 74.4c0-1.1.9-2 2-2s2 .9 2 2-.9 2-2 2-2-.8-2-2zm3 0c0-.7-.5-1-1-1s-1 .3-1 1 .5 1 1 1 1-.3 1-1z"/></g><g fill="#0C3E5B"><path d="M472.4 66.1c0 .6-.4.9-1 1-.3-.6-1.3-1.4-3-1.4-1.9 0-3.6 1.3-3.6 4.3s1.8 4.3 3.6 4.3 2.7-.7 3.1-1.5c.6 0 1 .4 1 1 0 1-1.5 2.1-4 2.1-2.8 0-5.7-1.7-5.7-5.9 0-4.4 3-5.9 5.7-5.9 2.5 0 3.9 1.1 3.9 2z"/><path d="M462.4 70c0-4.8 3.3-6.4 6.2-6.4 2.7 0 4.3 1.3 4.3 2.5 0 .8-.5 1.4-1.4 1.5h-.4l-.2-.3c-.2-.4-1-1.1-2.5-1.1-1.9 0-3.1 1.4-3.1 3.8 0 2.8 1.6 3.8 3.1 3.8 1.8 0 2.4-.7 2.7-1.2l.1-.3h.3c.9 0 1.5.6 1.5 1.4 0 1.3-1.7 2.6-4.5 2.6-2.8.1-6.1-1.5-6.1-6.3zm9.5-3.9c0-.5-1.1-1.5-3.3-1.5-2.5 0-5.2 1.4-5.2 5.5 0 4 2.7 5.4 5.2 5.4 2.3 0 3.5-1 3.5-1.6 0-.2-.1-.3-.3-.4-.7 1-1.8 1.5-3.4 1.5-2 0-4.1-1.5-4.1-4.8 0-3.6 2.2-4.8 4.1-4.8 1.5 0 2.7.6 3.2 1.3.3-.3.3-.5.3-.6z"/></g><g fill="#0C3E5B"><path d="M485.1 70c0 4-2.7 5.9-5.7 5.9s-5.7-1.9-5.7-5.9 2.7-5.9 5.7-5.9 5.7 2 5.7 5.9zm-9.4 0c0 2.9 1.6 4.3 3.7 4.3s3.7-1.5 3.7-4.3-1.6-4.3-3.7-4.3c-2.2 0-3.7 1.5-3.7 4.3z"/><path d="M473.2 70c0-4.5 3.1-6.4 6.2-6.4s6.2 2 6.2 6.4-3.1 6.4-6.2 6.4-6.2-1.9-6.2-6.4zm11.4 0c0-3.8-2.6-5.5-5.2-5.5s-5.2 1.7-5.2 5.5c0 4 2.8 5.4 5.2 5.4 2.4 0 5.2-1.4 5.2-5.4zm-9.4 0c0-2.9 1.7-4.8 4.2-4.8 2.6 0 4.2 1.9 4.2 4.8s-1.7 4.8-4.2 4.8c-2.6.1-4.2-1.8-4.2-4.8zm7.4 0c0-2.4-1.2-3.8-3.2-3.8s-3.2 1.4-3.2 3.8 1.2 3.8 3.2 3.8c2 .1 3.2-1.4 3.2-3.8z"/></g><g fill="#0C3E5B"><path d="M488.1 64.3c.6 0 .9.3.9.9v1c.7-1.2 1.7-2 3.3-2 1.9 0 3.2 1.1 3.6 2.9.5-1.8 2-2.9 3.7-2.9 2.4 0 4 1.3 4 4.7V75c0 .6-.3.9-.9.9h-.1c-.6 0-.9-.3-.9-.9v-6c0-2.4-1-3.2-2.4-3.2-2.5 0-2.9 2.2-2.9 4.6V75c0 .6-.3.9-.9.9h-.2c-.6 0-.9-.3-.9-.9v-6c0-2.4-1.1-3.2-2.4-3.2-2.5 0-2.9 2.6-2.9 4.5V75c0 .6-.3.9-.9.9h-.1c-.6 0-.9-.3-.9-.9v-9.7c0-.6.3-.9.9-.9z"/><path d="M486.6 74.9v-9.7c0-.9.5-1.4 1.4-1.4h.1c.7 0 1.2.3 1.4.9.7-.7 1.7-1.1 2.8-1.1 1.6 0 2.9.7 3.7 2.1.8-1.3 2.1-2.1 3.7-2.1 2.9 0 4.5 1.8 4.5 5.2v6.1c0 .5-.2 1.4-1.4 1.4h-.1c-.9 0-1.4-.5-1.4-1.4v-6c0-2.4-1.1-2.7-1.9-2.7-1.7 0-2.4 1.2-2.4 4.1v4.6c0 .9-.5 1.4-1.4 1.4h-.2c-.9 0-1.4-.5-1.4-1.4v-6c0-2.4-1.1-2.7-1.9-2.7-.6 0-2.4 0-2.4 4v4.7c0 .9-.5 1.4-1.4 1.4h-.1c-1.2-.1-1.6-.5-1.6-1.4zm1.9-9.7c0-.3 0-.4-.4-.4h-.1c-.3 0-.4 0-.4.4v9.7c0 .3 0 .4.4.4h.1c.4 0 .4-.1.4-.4v-4.7c0-1.2.2-2.2.4-2.9l-.4.8v-2.9zm7.4 3.5-.4-1.6c-.4-1.6-1.6-2.5-3.2-2.5-1.3 0-2.2.6-2.8 1.8.7-.9 1.6-1.2 2.5-1.2 1.1 0 2.9.5 2.9 3.7v6c0 .3 0 .4.4.4h.2c.4 0 .4-.1.4-.4v-4.6c-.1-.4-.1-1 0-1.6zm7.2.1c0-2.8-1.1-4.2-3.5-4.2-1.3 0-2.4.7-2.9 1.8.5-.7 1.3-1.2 2.6-1.2 1.1 0 2.9.5 2.9 3.7v6c0 .3 0 .4.4.4h.1c.4 0 .4-.1.4-.4v-6.1z"/></g><path fill="#0C3E5B" d="M170.4 51.6h-15c-1 0-1.8-.8-1.8-1.8v-1.5c0-1 .8-1.8 1.8-1.8h15c1 0 1.8.8 1.8 1.8v1.5c0 1-.8 1.8-1.8 1.8z"/></svg>