<svg version="1.1" id="svg1" width="679.493" height="143.08" viewBox="0 0 679.493 143.08" xmlns="http://www.w3.org/2000/svg"><defs id="defs1"><clipPath clipPathUnits="userSpaceOnUse" id="clipPath18"><path d="M1260.89 200.148c-8.88 0-16.53-6.367-18.1-15.117L1220 59.801c-2.09-11.29 6.6-21.692 18.08-21.692h340.31c8.91 0 16.5 6.36 18.1 15.11l22.82 125.242c2.04 11.289-6.63 21.687-18.13 21.687z" id="path18"/></clipPath><clipPath clipPathUnits="userSpaceOnUse" id="clipPath20"><path d="M1260.89 200.148c-8.88 0-16.53-6.367-18.1-15.117L1220 59.801c-2.09-11.29 6.6-21.692 18.08-21.692h340.31c8.91 0 16.5 6.36 18.1 15.11l22.82 125.242c2.04 11.289-6.63 21.687-18.13 21.687z" id="path20"/></clipPath><clipPath clipPathUnits="userSpaceOnUse" id="clipPath22"><path d="M1260.89 200.148c-8.88 0-16.53-6.367-18.1-15.117L1220 59.801c-2.09-11.29 6.6-21.692 18.08-21.692h340.31c8.91 0 16.5 6.36 18.1 15.11l22.82 125.242c2.04 11.289-6.63 21.687-18.13 21.687z" id="path22"/></clipPath></defs><g id="g1"><g id="group-R5" fill-opacity="1" fill-rule="nonzero" stroke="none"><path id="path2" d="M1998.17 180.008l-7.56-43.817h96.78c3.46 0 5.99-1.269 5.04-6.308l-1.89-11.985c-.63-3.464-1.89-6.296-7.57-6.296h-96.78l-17.97-103.09c-.63-3.461-2.2-6.301-7.25-6.301h-16.07c-4.73 0-5.99 2.84-5.36 6.3l29.95 171.497c8.19 46.972 33.41 58.633 77.55 58.633 33.73 0 48.55-.633 59.58-2.52 4.1-.633 4.73-1.894 4.1-4.734l-2.84-14.817c-.32-2.207-1.26-3.777-4.1-3.777h-60.84c-33.42 0-40.67-8.828-44.77-32.785" transform="matrix(.13333 0 0 -.13333 0 143.08)" fill="#231f20"/><path id="path3" d="M2369.93 212.793c-10.09 0-27.43 0-35-.949l-15.13-86.375c7.88-.313 20.49-.637 34.68-.637 35.62 0 62.73 11.035 67.46 43.828l.32 2.199c.63 3.789.94 7.254.94 10.411 0 24.902-17.02 31.523-53.27 31.523zm80.7-41.934l-.32-2.199c-5.35-36.883-28.68-57.695-60.84-63.68l40.98-96.789c.32-.62.63-1.57.63-2.832 0-1.89-1.26-3.148-3.46-3.148h-21.76c-3.78 0-4.73 0-6.3 4.098l-39.72 93.933h-9.78c-10.4 0-26.79.637-34.67.949l-16.08-92.68c-.63-3.152-2.21-6.3-6.94-6.3h-17.02c-3.15 0-5.04 1.89-4.41 6.3l38.77 220.677c.95 4.406 3.16 6.3 8.83 6.933 13.87 1.574 40.67 2.52 55.8 2.52 45.4 0 77.23-17.02 77.23-56.114 0-3.789-.31-7.566-.94-11.668" transform="matrix(.13333 0 0 -.13333 0 143.08)" fill="#231f20"/><path id="path4" d="M2742.32 208.066c-.31 3.465-1.89 5.672-5.04 5.672-3.48 0-5.68-2.207-7.26-5.672l-46.97-103.722h69.67zM2785.5 2.211h-18.9c-2.84 0-4.1 2.2-4.42 4.719l-7.89 72.511h-81.64L2639.86 6.93c-.94-2.52-2.83-4.72-6.62-4.72h-19.22c-2.84 0-4.42 1.571-4.42 4.099 0 .941 0 1.882.63 3.14l94.57 205.239c8.83 19.226 22.38 23.953 36.26 23.953 12.92 0 25.54-4.414 27.74-23.641l22.06-205.55V8.19c0-3.46-1.57-5.98-5.36-5.98" transform="matrix(.13333 0 0 -.13333 0 143.08)" fill="#231f20"/><path id="path5" d="M3158.83 230.449c.64 3.145 1.9 5.985 6.62 5.985h16.71c3.16 0 4.73-2.207 4.73-4.727v-1.258l-38.77-219.097c-.95-5.043-2.53-9.141-10.72-9.141h-18.28c-6.62 0-7.88 1.89-9.14 5.039l-66.21 185.055-.63.937c-.31 0-.62-.312-.62-.937L3010.04 8.191c-.63-3.14-3.47-5.98-6.62-5.98h-18.29c-2.2 0-3.78.937-3.14 3.777l39.08 221.617c.95 5.051 3.47 8.829 10.72 8.829h15.45c8.83 0 10.09-1.571 11.66-6.309l65.58-182.516c.62-1.898.94-2.53 1.26-2.53.31 0 .62.632.95 2.53l32.14 182.84" transform="matrix(.13333 0 0 -.13333 0 143.08)" fill="#231f20"/><path id="path6" d="M3524.3 233.594c2.52-.313 5.04-.938 4.42-4.094l-2.85-16.082c-.31-2.832-1.57-3.781-5.36-3.469-11.03.949-34.04 2.844-52.32 2.844-30.9 0-58.01-18.281-67.47-71.563l-7.88-43.82c-1.57-8.828-2.21-16.394-2.21-23.328 0-35.3 18.6-48.23 44.45-48.23 17.97 0 41.3 1.886 52.65 2.52 5.05.32 5.99-.942 5.36-5.04l-2.21-12.934c-.63-3.777-1.89-5.347-7.56-6.296C3469.76 1.57 3457.15 0 3430.36 0c-31.85 0-68.41 18.602-68.41 72.191 0 7.563.62 16.078 2.21 25.22l7.88 43.819c14.5 80.067 60.21 97.411 100.24 97.411 19.86 0 38.47-2.84 52.02-5.047" transform="matrix(.13333 0 0 -.13333 0 143.08)" fill="#231f20"/><path id="path7" d="M3742.52 180.008l-7.55-43.817h96.77c3.47 0 5.68-1.582 5.04-6.308l-1.88-11.985c-.64-3.464-2.21-6.296-7.57-6.296h-96.78l-9.14-52.973c-.95-5.04-1.58-9.14-1.58-12.918 0-14.191 7.88-19.86 34.36-19.86h59.9c3.15 0 4.41-.632 3.79-3.78l-2.85-15.45c-.31-1.89-.62-3.781-3.77-4.41-9.15-.95-43.2-2.211-61.79-2.211-35.94 0-58.01 14.809-58.01 45.398 0 4.09.31 8.512 1.26 13.23l21.12 121.38c8.2 46.34 33.42 58.633 77.55 58.633 35.63 0 52.65-1.258 61.16-2.84 2.21-.313 3.15-1.262 2.52-4.414l-2.84-14.817c-.31-3.152-1.88-3.777-4.09-3.777h-60.85c-33.41 0-40.66-8.828-44.77-32.785" transform="matrix(.13333 0 0 -.13333 0 143.08)" fill="#231f20"/><path id="path8" d="M1387.43 599.023l-26.58-33.109c-84.35-90.422-216.29-75.988-216.29-75.988l363.13 440.062c179.04 217.262 522.6 122.622 522.6 122.622l-146.84-461.051c-42.88-123.063-265.72-101.633-265.72-101.633l34.95 109.097zm295.55 94.641l80.66 235.879c13.98 44.738-80.66 25.617-136.61-41.492l-162.22-194.387h218.17" transform="matrix(.13333 0 0 -.13333 0 143.08)" fill="#137bc9"/><path id="path9" d="M1294.57 974.289h-74.11l-122.14-382.75c-39.16-123.059-275.043-101.605-275.043-101.605l156.145 484.355H774.32s17.266 89.511 157.114 89.981l512.776-.47s-19.09-89.511-149.64-89.511" transform="matrix(.13333 0 0 -.13333 0 143.08)" fill="#137bc9"/><path id="path10" d="M2663.56 565.91c-31.22-97.414-198.6-97.414-242.4-22.84L2238.9 882.441l-9.79-33.082-82.04-257.804c-31.25-97.887-166.89-101.606-166.89-101.606l151.01 472.676c42.91 134.745 255 135.665 297.41 55.005l151.98-291.329 9.8 30.277 68.99 217.703c28.9 90.919 163.14 92.329 163.14 92.329s-128.19-403.255-158.95-500.7" transform="matrix(.13333 0 0 -.13333 0 143.08)" fill="#137bc9"/><path id="path11" d="M3199.71 1064.26c121.68 0 227.95-4.66 302.55-63.86 74.13-58.283 68.08-137.548 41.49-220.033-24.23-76.461-62-150.566-156.64-207.929-104.41-62.473-220.95-81.098-341.71-81.098h-275.95l150.56 474.09c31.7 99.77 158.5 98.83 279.7 98.83m-165.96-498.346h26.11c61.06 0 110.02 14.461 157.56 56.399 42.44 38.242 66.67 119.808 80.18 162.246 14.46 45.211 43.38 136.578 17.26 172.015-18.65 26.117-40.1 34.028-110.95 34.028 0 0-34.95 0-43.36-27.973l-126.8-396.715" transform="matrix(.13333 0 0 -.13333 0 143.08)" fill="#137bc9"/><path id="path12" d="M3987.72 1064.26h132.88c67.58 0 140.3 5.58 187.84-24.7 41.96-27.03 59.23-68.552 41.96-122.615-20.95-65.25-73.65-99.277-172.93-118.398 118.4-22.399 158.5-76.906 134.72-151.035-15.85-49.903-54.1-94.172-123.06-123.563-72.27-30.75-158.98-32.609-232.64-32.609h-404.17l153.83 474.09c31.7 99.77 156.65 98.83 281.57 98.83m-82.04-229.826h52.67c34.97 0 73.19 3.718 108.16 19.121 27.06 11.656 47.07 44.293 53.15 63.39 6.99 20.508 8.85 52.231-14.91 62.946-14.01 6.05-31.72 10.242-54.09 11.656h-55.48s-39.63-.945-48.46-28.449zm-85.32-268.047h75.99c36.36 0 98.36 12.129 122.15 26.09 27.97 17.261 47.54 41.046 55 64.332 7 21.453 4.22 57.812-16.32 70.41-21.42 13.515-31.69 16.765-63.86 16.765l-76.46.469s-41.02-4.187-48.46-27.949l-48.04-150.117" transform="matrix(.13333 0 0 -.13333 0 143.08)" fill="#137bc9"/><path id="path13" d="M4777.81 733.742l-45.21-142.183c-39.64-123.063-273.66-101.633-273.66-101.633l77.85 243.816-97.88 196.274c-41.5 86.704 179.01 183.204 212.56 108.604l88.59-191.589 163.61 158.029c90.92 90.92 192.56 32.17 192.56 32.17l-318.42-303.488" transform="matrix(.13333 0 0 -.13333 0 143.08)" fill="#137bc9"/><path id="path14" d="M571.531 974.754c-23.312-.918-84.84-2.801-84.84-2.801-53.593 0-124.476-18.652-131.941-41.937-13.516-41.965 58.281-51.762 104.906-57.813 66.664-9.797 156.617-21.453 207.907-48.012 60.14-30.781 82.984-92.308 65.277-148.73-17.735-55.93-68.996-112.793-145.93-146.848-80.18-35.859-205.574-42.879-268.988-42.879-155.231 0-317.922.469-317.922.469s22.84 96.5 169.688 96.5c0 0 70.41-1.414 96.968-1.414 27.035 0 68.528 3.274 97.446 3.274 57.312 0 141.238 14.906 153.812 54.539 14.93 47.57-79.238 56.394-129.609 63.886-145.43 20.957-281.09 64.778-241.461 189.727 17.238 53.121 61.058 104.883 132.859 139.375 73.656 34.97 140.324 41.02 231.688 41.02 144.988 0 227.027-.44 227.027-.44s-8.855-94.17-166.887-97.916" transform="matrix(.13333 0 0 -.13333 0 143.08)" fill="#137bc9"/><path id="path15" d="M5048.4 575.965c0-48.356-39.19-87.539-87.52-87.539s-87.54 39.183-87.54 87.539c0 48.328 39.21 87.515 87.54 87.515 48.33 0 87.52-39.187 87.52-87.515m-87.52 72.531c-40.05 0-72.56-32.48-72.56-72.531 0-40.078 32.51-72.559 72.56-72.559 40.08 0 72.56 32.481 72.56 72.559 0 40.051-32.48 72.531-72.56 72.531" transform="matrix(.13333 0 0 -.13333 0 143.08)" fill="#137bc9"/><path id="path16" d="M4996.91 527.141h-8.49c-1.73 0-3.06 0-4.48 2.304l-23.41 38.953h-2.78c-4.09 0-7.15.129-13.23.34l-.18.028v-37.774c0-1.859-1.36-3.851-3.56-3.851h-7.18c-1.97 0-3.59 1.73-3.59 3.851v92.887c0 3.246 2.28 3.902 4.27 4.137 5.42.629 15.06 1.074 23.47 1.074 25.12 0 38.37-10.293 38.37-29.758v-.914c0-13.621-7.33-23.578-20.22-27.531l23.37-39.004c.36-.551.55-1.203.55-1.809 0-1.676-1.23-2.933-2.91-2.933m-52.57 54.25c5.47-.106 10.58-.211 13.41-.211 17.31 0 24.02 4.82 24.02 17.238v.914c0 11.684-6.97 16.477-24.02 16.477-3.54 0-9.88 0-13.41-.289v-34.129" transform="matrix(.13333 0 0 -.13333 0 143.08)" fill="#137bc9"/><path id="path17" d="M1381.51 261.906h-204.39l27.16-280.855h121.78l55.45 280.855" transform="matrix(.13333 0 0 -.13333 0 143.08)" clip-path="url(#clipPath18)" fill="#264a96"/><path id="path19" d="M1512.39 261.906H1381.5l-55.45-280.855h132.43l53.91 280.855" transform="matrix(.13333 0 0 -.13333 0 143.08)" clip-path="url(#clipPath20)" fill="#d0d1cd"/><path id="path21" d="M1655.28 259.074h-145.72l-53.91-280.855h164.63l35 280.855" transform="matrix(.13333 0 0 -.13333 0 143.08)" clip-path="url(#clipPath22)" fill="#dd2538"/></g></g></svg>