<svg xmlns="http://www.w3.org/2000/svg" width="4004.36" height="1904.42">
  <path fill="#fff" stroke="#fff" d="M208.02 183.32h3593.46v958.89H208.02z"/>
  <path fill="#00a94e" stroke="#00a94e" stroke-width="2.26" d="M8.67 1326.54c-.75-2.79-1.37-302.15-1.39-665.24L7.25 1.13h3995.98v394.26c0 216.85-.68 516.2-1.5 665.25l-1.5 270.98H10.03zm406.43-189.99c2.64-2.74 8.36-45.77 54.47-409.3 19.9-156.89 37.67-295.33 39.5-307.64 1.82-12.31 3.32-23.22 3.32-24.24 0-1.02 8.11-1.86 18.04-1.86 9.92 0 18.04.48 18.04 1.06 0 1.12 60.77 209.35 158.93 544.6 31.76 108.48 58.98 198.02 60.47 198.97 3.48 2.21 209.36 2.28 212.67.07 3.54-2.36 5.94-10 117.08-372.61 55.3-180.47 103.62-338.01 107.37-350.1l6.82-22h16.56c16.24 0 16.58.13 17.85 6.21.7 3.41 12.46 103.62 26.11 222.69 45.04 392.81 44.92 391.85 53.37 412.95 8.28 20.68 29.47 51.9 44.64 65.77 14.31 13.08 26.66 20.41 52.4 31.13l18.48 7.69h187.42v-191l-20.64-1.47c-11.35-.81-33.03-1.47-48.18-1.47-24.2 0-28.24-.55-33.31-4.54-10.42-8.2-4.75 33.32-56.96-417.16-20.62-177.98-38.47-324.61-39.67-325.85-2.5-2.61-347.85-3.25-350.45-.65-2.1 2.1-5.65 15.31-60.77 226.15-58.53 223.89-88.3 335.98-113.05 425.62-10.7 38.77-20.5 74.41-21.76 79.2-1.66 6.26-2.82 7.78-4.13 5.44-1-1.8-25.26-92.98-53.9-202.64-143.74-550.32-138.85-531.8-141.05-534-1.93-1.94-349.8-1.73-351.74.2-1.56 1.56-18.76 129.58-74.48 554.3-54.51 415.5-50.95 384.53-44.4 386.42 7.69 2.22 198.73.38 200.95-1.94zm2026.36-2.83c45.16-12.84 72.43-34.28 90.05-70.8 18.7-38.78 17.97-29.25 16.33-210.76-1.6-177.04-.93-169.05-16.65-200.91-19.95-40.43-53.69-69.13-100.87-85.82l-15.79-5.58-251.44-1.81c-138.29-1-266-1.9-283.8-1.99l-32.36-.18-7.76-7.76-7.76-7.76.66-66.6.66-66.61 6.25-6.25 6.25-6.25 352.87-.68 352.87-.68V195.07H2163.8c-385.27 0-387.25.02-404.22 4.69-9.38 2.58-25.68 8.81-36.22 13.84-33.25 15.87-62.2 49.31-81.88 94.56l-7.2 16.57-.64 140.94c-.4 90.2.21 146.63 1.73 156.73 1.63 10.86 5.9 23.13 13.72 39.33 9.5 19.69 14.08 26.23 27.9 39.83 19.12 18.8 43.47 33.85 71 43.87l19.34 7.04 283.98 1.73 283.97 1.73 6.37 7.12 6.36 7.13v77.87c0 84.14-.3 86.43-12.2 94.23-5.15 3.37-21.7 3.72-177.71 3.72-94.62 0-233.68.68-309.02 1.5l-137 1.5v93.96c0 51.68.7 94.66 1.55 95.51.84.85 160.93 1.28 355.73.94l354.2-.6zm368.28-19.15c4.92-13.96 19.31-55.91 32-93.24l23.06-67.86 42.1-1.48c23.14-.8 172.03-1.47 330.84-1.47l288.76-.01 30.98 94.71 30.98 94.72h105.9c89.97 0 105.91-.49 105.91-3.2 0-2.75-189.96-571.4-283-847.16l-30.88-91.53-136.78-1.49c-75.23-.82-265.4-1.5-422.61-1.5h-285.83v198.45h107.11c58.92 0 107.12.34 107.12.76s-50.3 143.25-111.8 317.4c-108.22 306.51-149.79 425.08-149.79 427.23 0 .57 46.58 1.04 103.5 1.04h103.5z"/>
  <path fill="#00a94e" stroke="#00a94e" stroke-width="2.26" d="M2936.58 751.14c0-.5 23.45-70.27 52.1-155.03 28.65-84.76 55.8-165.14 60.32-178.61l8.23-24.5 131.97.87 131.98.87 10.12 5.93c12.9 7.56 16.44 14.15 33.72 62.75 18.13 50.97 95.85 276.94 97.54 283.57l1.29 5.08H3200.2c-145 0-263.63-.42-263.63-.93z"/>
  <path stroke="#000" stroke-width=".28" d="M42.92 1790.32c-8.02-.14-11.45-.3-11.9-.54-1.73-.94-1.05-4.98 17.15-101.67 10.1-53.63 20.2-107.19 25.22-133.6 2.1-11.02 3.77-20.28 3.72-20.59-.07-.47-.37-.6-1.91-.75-1-.1-15.28-.32-31.71-.48-31.5-.3-42.7-.53-43.25-.87-.53-.32.98-9.43 6-36.37l2.6-13.96 69.05.08c73.11.09 145.6.5 145.88.85.28.32-.4 5.06-2.84 19.65-2.17 13.06-4.08 23.64-4.96 27.52l-.42 1.86-3.3.18c-1.81.1-10.72.3-19.79.46-45.57.78-54 1.04-54.42 1.72-.62.98-2.53 8.86-4.45 18.44-2.12 10.5-27.16 141.05-39.68 206.8l-5.89 30.92-1.4.15c-2.42.28-31.87.4-43.7.2zM215.44 1790.29c-3.72-.11-7.56-.3-8.53-.4-1.57-.2-1.79-.3-1.94-.92-.41-1.62.67-9.02 3.7-25.31 6.13-33.01 51.73-273.04 56.7-298.45l1.86-9.51 15.54.02c20.16.02 38.34.4 39.7.81.73.22 1.12.53 1.23.97.94 3.75-11.46 70.05-19.93 106.58-2.68 11.55-6.85 26.27-12.8 45.1a904.91 904.91 0 0 0-3.8 12.27l-.74 2.6c-.48 1.69 1.75-1.18 6.92-8.86 10.4-15.48 23.2-29.68 35.2-39.05a105.32 105.32 0 0 1 24.5-14.3l5.68-2.4H398l3.86 1.95c7.62 3.87 11.17 6.34 15.36 10.71 5.12 5.35 8.69 12.02 10.87 20.32 1.4 5.3 1.58 7.12 1.58 15.07-.01 14.1-1.18 22.1-11.58 79.5-7.83 43.2-16.75 89.8-19.01 99.34l-.86 3.6-1.89.18c-5.13.49-47.21.05-52.98-.54l-1.76-.19v-1.56c0-3.37 2-14.67 12-68.14 11.06-58.96 12.72-68.34 14.68-82.73.7-5.14.7-13.59-.01-16.2-1.18-4.4-3.37-7.53-6.43-9.19-1.78-.96-1.78-.96-6.17-1.06-10.38-.22-15.55 2.07-25.43 11.28-13.58 12.65-26.34 30.8-36.73 52.24-12.95 26.74-19.41 49.58-29.8 105.42l-2.04 11-19.73.02c-10.85.02-22.77-.06-26.49-.17z"/>
  <path stroke="#000" stroke-width=".56" d="M524.58 1794.46c-9.28-1.27-20.7-4.87-27.9-8.8-12.07-6.59-22.5-18.1-27.7-30.59-3.49-8.4-5-20.18-5-39 0-29.58 3.77-49.11 14.48-74.93 8.72-21 16.45-32.68 30.97-46.8 14.71-14.31 31.17-24.71 47.63-30.1 12.5-4.09 27.4-5.75 43.4-4.84 25.02 1.43 39.92 7 51.6 19.3 9.69 10.2 13.75 22.7 13.02 40.03-.73 17.37-6.89 30.3-20.66 43.4-19.23 18.3-45.76 27.75-95.32 34-20.03 2.53-23.14 3.03-24.6 3.95-2 1.27-2.67 5.57-2.28 14.6.95 21.62 5.09 28.53 19 31.74 3.53.8 7.25.97 22.82.98 22.26.01 23.58-.16 47.57-6.25 9.11-2.32 16.7-4.08 16.86-3.92 1 1.01 1.8 37.44.91 41.9-.42 2.08-.88 2.3-11.42 5.45a263 263 0 0 1-50.25 9.33c-10.64.84-38.39 1.2-43.13.55zm25.77-137.84c27.57-3.44 40-7.72 49.66-17.08 5.76-5.59 8.12-11.63 7.54-19.26a35.8 35.8 0 0 0-1.03-6.4c-1.1-3.37-4.95-7.27-9.05-9.13-3.46-1.58-3.8-1.62-13.13-1.64-9.58-.01-9.6-.01-13.81 1.81-15.74 6.79-29.13 22-37.23 42.3-2.46 6.16-3.17 9.07-2.58 10.6.42 1.1 1.87 1.02 19.63-1.2zM805.62 1794.7c-10.09-.9-22.2-3.1-24.97-4.52l-1.68-.88.31-4.31c.57-7.73 8.69-46.73 10.08-48.4.86-1.04 2.7-.8 18.8 2.5l12.4 2.53 16 .28c17.82.32 21.55-.04 29.37-2.78 13.92-4.89 23.9-13.07 28.73-23.57 1.88-4.08 1.96-4.49 2.19-12.48.58-20.25-1.67-23.27-35.98-48.42-16.1-11.8-20.92-15.76-28.76-23.63-7.7-7.72-11.78-13.2-15.2-20.43-4.4-9.26-6.22-18.5-6.22-31.76 0-39.67 21.8-72.72 59.56-90.24 16.65-7.73 31.62-10.63 58.27-11.3 19.93-.5 48.79 1.05 52.43 2.82 1.28.62 1.4.96 1.25 3.76-.14 2.7-7.79 41.98-9.05 46.5-.43 1.55-.65 1.67-2.68 1.5-1.21-.09-6.27-.9-11.23-1.81-14.51-2.64-18.57-3.06-29.6-3.05-11.18 0-16.15.67-25.36 3.43-15.52 4.63-25.76 14.62-28.53 27.83-1.25 5.9-.84 15.52.83 19.63 3.63 8.95 10.64 15.72 37.84 36.5 32.27 24.65 43 38.18 46.51 58.6 1.03 5.96 1.18 22.85.27 30.16-2.22 17.9-8.82 32.42-21.41 47.07-21.45 24.95-50.4 40.16-83.15 43.7-5.58.6-46.12 1.22-51.02.78zM1034.02 1794.21c-9.94-2.24-20.9-10.2-26.97-19.57a65.67 65.67 0 0 1-9.81-28.24c-.95-10.36-.35-49.77.87-57.34 5.87-36.49 22.57-70.56 45.5-92.76 20.32-19.7 43.63-30.82 74.58-35.58 7.85-1.2 36.61-1.64 52.47-.8 21.1 1.14 38.82 3.07 46.15 5.04 3.44.93 3.46.94 3.64 3.18.34 4.08-1.6 15.24-16.81 97.24-11.2 60.31-17.63 95.69-20.28 111.47-2.04 12.13-2.3 12.97-4.33 13.48-1.77.44-45.51-.17-50.8-.71-3.2-.33-3.52-.49-3.52-1.66 0-1.98 2.83-12.54 9.58-35.76 7.14-24.56 7.05-24.24 6.36-24.24-.3 0-4.53 5.36-9.42 11.9-25 33.44-41.76 47.2-64.87 53.3-5.03 1.32-6.88 1.5-17.2 1.67-8.6.14-12.47-.02-15.14-.62zm46.19-51.37c5.18-1.54 10.4-5.42 19.16-14.23a174 174 0 0 0 23.35-29.4c4.62-7.36 12.59-23.02 17.21-33.83 8.67-20.26 16.58-49.76 15.01-56-.53-2.13-3.08-2.66-14.73-3.02-11.63-.37-19.45.34-26.6 2.41-25.01 7.25-45.66 33.74-54.01 69.3-2.87 12.19-3.38 17.14-3.36 32.41.02 15.85.62 21.2 2.84 25.79 1.56 3.2 4.61 6.1 7.28 6.88 2.86.84 10.56.67 13.85-.31zM1174.77 1902.73c-8.6-1.29-11.7-2.07-11.79-2.98-.27-3.17 1.43-10.25 7.57-31.41l4.16-14.38 17.7.19c19.53.2 24.45-.28 29.61-2.9 6.05-3.06 12.56-9.72 16.73-17.08 6.28-11.12 9.29-23.77 25.7-108.18 13.41-68.97 20.15-105.19 20.73-111.4l.35-3.72-2.19-.4c-1.2-.2-7.77-.6-14.59-.88-6.82-.27-14-.68-15.97-.9l-3.56-.4.36-2.88c.66-5.28 3.67-22.3 5.66-31.92 1.07-5.23 1.95-9.62 1.95-9.77 0-.38 7.86-.88 24.23-1.54 7.9-.33 14.42-.65 14.5-.72.07-.08 1.28-5.46 2.7-11.96 7.65-35.17 15.42-52.74 30.1-68.05 11.11-11.58 24.76-19.79 41.76-25.11l4.82-1.51h31.3c17.2 0 31.99.19 32.85.43 2.42.67 2.74 2.38 1.54 8.1-1.35 6.42-4.98 19.65-8.3 30.22l-2.61 8.32h-18.09c-9.94.02-19.72.25-21.73.54-7.28 1.06-15.39 6.48-20.54 13.74-5.29 7.46-8.9 16.67-12.43 31.74-2.11 8.99-2.46 12.5-1.3 12.85.4.1 7.56.49 15.93.85 15.6.66 28.9 1.53 31.15 2.03 1 .22 1.27.67 1.26 2.1 0 3-2.6 20-4.8 31.38l-2.06 10.63-4.04.35c-2.22.2-12.02.6-21.8.9-18.36.58-23.29.92-24.9 1.76-2.09 1.09-2.5 3-19.08 89.85-23.3 122.08-24.36 126.69-33.27 144.9-10.58 21.63-26.33 39.04-42.82 47.32-10.71 5.38-21.72 8.86-31.3 9.9-3.1.33-12.99.7-21.98.83-14.01.2-17.37.09-23.5-.83zM1457.05 1794.66c-8.76-.78-20.58-4.09-27.9-7.8-12.09-6.12-23.4-18.09-28.8-30.45-3.64-8.38-3.92-9.87-4.55-24.5-.93-21.53-.2-40.22 2.12-54.12 2.71-16.25 10.7-38.58 18.96-53 10.24-17.89 28.17-36.96 45.86-48.78 9.82-6.57 23.27-12.37 33.81-14.6 7.1-1.48 20.57-2.19 34.92-1.82 17.57.45 23.15 1.5 33.24 6.3 20.44 9.7 31.84 26.66 31.93 47.5.02 3.68-.13 7.68-.33 8.9-2.7 16.54-9.2 29.48-20.1 40.01-6.12 5.9-12.34 10.2-21.07 14.55-20.97 10.45-41.67 15.44-83.37 20.09-8.26.92-15.51 1.94-16.12 2.26-2.62 1.4-3.07 4.86-2.32 17.49.73 12 1.39 15.52 3.66 19.32 2.1 3.51 7.39 7.7 11.83 9.35 4.9 1.84 14.2 2.52 28.44 2.1 20.28-.6 30.2-2.06 48.45-7.13 12.24-3.4 12.92-3.44 13.4-.88.2 1.04.4 10.98.45 22.08l.1 20.18-10.72 3c-26.8 7.52-49.08 10.46-77.8 10.24a358.3 358.3 0 0 1-14.1-.3zm23.4-138.06c13.35-1.45 27.33-4.44 35.58-7.63 11.8-4.55 20.66-14.11 22.52-24.32 1.38-7.6-2.36-15.61-8.97-19.2-3.67-2-13.28-3-20.5-2.12-9.4 1.15-22.4 9.28-30.06 18.8-7.8 9.72-15.96 25.66-16.95 33.13l-.4 2.94 5.59-.39c3.06-.21 9-.76 13.19-1.21zM1674.36 1794.43c-11.81-1.53-23.27-7.17-30.43-15-5.28-5.76-7.98-13.5-9.14-26.21-.6-6.47-.54-8.15.6-17.37 2-16.3 4.54-31.19 14.18-83.43 6.37-34.46 6.95-37.98 6.68-40.31l-.2-1.7-11.55-.62c-16.66-.9-22.84-1.4-23.68-1.91-1-.63-.12-7.1 3.41-24.8 3.21-16.12 3.65-17.77 5.03-19.15 1.16-1.17 5.14-1.5 25.63-2.18l11.8-.38 6.71-33.26c4.66-23.07 7-33.56 7.66-34.24 1.12-1.16 6.48-2.54 21.36-5.48 15.63-3.1 28.48-5.19 32.51-5.3l3.44-.09-.15 3.23c-.16 3.62-1.72 12.88-7.1 42.16-4.27 23.26-5.58 31.67-5 32.19.22.2 10.64.8 23.15 1.32 12.5.52 24.02 1.1 25.58 1.28l2.84.33-.33 3.16c-.7 6.65-6.68 35.85-7.83 38.3-1.4 2.94-3.8 3.51-16.92 4.07-22.2.95-35.34 1.67-36.17 2-1.21.46-3.36 10.3-8.49 38.84-7.53 41.96-12.14 72.53-12.14 80.5 0 6.13.46 7.51 3.47 10.34 4.38 4.13 8.27 4.66 25.91 3.55 6.63-.42 13.07-.77 14.3-.78l2.26-.03-.16 5.08c-.2 6.04-3.03 26.45-4.8 34.39-1.2 5.42-1.31 5.67-3.21 6.58-7.57 3.65-45.04 6.75-59.22 4.92zM1741.54 1903.86c-3.52-.25-8.01-.77-9.97-1.14-3.2-.6-3.6-.83-3.9-2.22-.6-2.71 1.23-15.07 5.7-38.5 2.34-12.25 1.28-11.26 10.15-9.43 23.05 4.74 41.55.55 57.95-13.13 9.71-8.1 16.84-18.35 20.6-29.6 3.05-9.14 3.68-15.92 3.68-39.88 0-12.64-.3-25.12-.74-30.44-3.37-41.25-8.56-72.37-21.6-129.39-6.6-28.88-10.07-44.42-10.07-45 0-.92 1.72-1.29 8.73-1.82 7.1-.54 53.34-1.79 53.68-1.45 1.73 1.73 13.47 60.14 17.05 84.83 2.87 19.79 3.72 30.69 5.44 69.98.5 11.62 1.1 21.63 1.33 22.23.48 1.3 5.76-8.55 17.83-33.26 22.27-45.6 28.14-58.62 56.35-125.1 7.14-16.83 11.06-25.3 11.99-25.87 2-1.24 52.55 13.18 53.33 15.21.76 1.97-2.99 10.94-18.7 44.76-28.86 62.19-52.9 108.8-75.45 146.39-53.76 89.58-102.39 135.98-148.77 141.95-7.9 1.02-26.28 1.49-34.6.88zM2228.85 1794.47c-22.58-1.38-45.27-8.6-62.08-19.79-19.39-12.9-32.02-34.76-37.25-64.5-1.45-8.26-1.44-45.82.02-56.07 5.5-38.63 16.7-69.77 35.1-97.53 24.35-36.77 58.85-61.5 100.67-72.2 27.39-6.99 68.34-6.6 99.69.96 6.9 1.66 8.46 2.48 8.46 4.47 0 4.44-12.63 50.35-14.1 51.26-.29.18-5.67-.82-11.96-2.22-19.36-4.3-33.25-5.8-48.08-5.15-15.71.67-22.25 1.94-32.35 6.26-28.43 12.17-47.72 33.72-60.27 67.36-7.96 21.32-11.4 41.45-11.4 66.82 0 19.33 2.06 29.64 7.93 39.73 4.9 8.42 11.52 14.44 21.1 19.19 11.53 5.7 12.46 5.85 35.53 5.85 24.52 0 30.94-.8 51.02-6.44 3.25-.9 7.54-2.03 9.53-2.49l3.6-.83-.34 10.82c-.48 15.22-2.39 37.08-3.58 41.18-.42 1.43-3.76 2.8-11.75 4.81-25.3 6.37-57.69 9.83-79.5 8.5zM2432.08 1794.66c-10.5-1.12-25.6-6.22-35.39-11.94-12.75-7.45-23.06-19.98-28.65-34.84-6.74-17.9-5.64-59.01 2.3-86.33 4.02-13.82 11.5-29.75 19.98-42.5 15.99-24.04 36.23-40.7 62.58-51.49 15.34-6.28 27-8.22 49.37-8.21 32.04.01 49.54 6.17 66.29 23.3 8.32 8.51 12.92 16.2 17.66 29.52l2.03 5.7v21.93c0 29.41-.6 35.06-5.35 50.63-12.31 40.4-37.86 72.83-70.55 89.55-12.8 6.55-26.38 11.24-37.74 13.03-10 1.59-34.31 2.53-42.53 1.65zm36.73-51.48c10.22-1.17 21.9-7.9 32.28-18.6 10.72-11.05 18.57-25.84 23.56-44.4l1.78-6.62.23-19.2c.27-21.7 0-24.38-2.9-28.73-2.43-3.67-8.24-9.48-11.88-11.88-9.41-6.22-32.75-5.11-45.12 2.14-20.6 12.07-36.47 38.6-40.65 67.95-1.1 7.67-1.28 29.65-.3 35.66.71 4.33 3.68 10.5 6.84 14.18 6.97 8.14 19.43 11.42 36.16 9.5zM2766.4 1790.44c-9.46-.27-17.77-.61-18.47-.77-2.14-.47-2.68 3.08 9.5-62 13.9-74.21 15.34-83.37 15.4-98.65.04-9.85-.05-10.92-1.17-13.35-1.53-3.32-4.9-5.83-8.97-6.67-8.84-1.84-20.66 4.9-32.97 18.77-10.36 11.67-19.48 25.9-29.36 45.79-13.23 26.64-16.27 36.9-27.75 93.58l-4.68 23.12-28.85.14c-15.86.08-28.85 0-28.85-.2 0-.19 4.3-22.96 9.56-50.6 15.14-79.57 27.4-145.17 31.53-168.56.59-3.36 1.29-6.32 1.56-6.59 1.2-1.18 11.53-1.88 28.39-1.91 17.13-.04 24.26.33 25.9 1.35 1.95 1.2.2 9.41-8.38 39.18-3.13 10.84-5.68 20.07-5.68 20.5 0 1.48 1.52-.38 7.45-9.12 10.07-14.83 18.2-24.3 29.25-34 7.25-6.37 11.15-9.07 18.52-12.84 15.27-7.81 23.47-9.42 42.32-8.3 13.71.8 18.49 2.81 27.07 11.36 3.8 3.79 5.36 5.86 7.4 9.87 4.06 7.9 4.63 11.16 4.23 24.08-.19 6.24-.69 12.55-1.18 14.82a40.72 40.72 0 0 0-.87 5.56c-.02 1.45.08 1.54.92.85.52-.43 3.28-4.33 6.14-8.67 16.14-24.5 31.16-39.77 48.46-49.26 6.48-3.55 14.05-6.51 19.5-7.63 9.94-2.02 26.64-1.66 36.33.79 11.4 2.88 19.59 9.54 24.96 20.3 4.05 8.1 5.76 15.01 6.15 24.9.52 13.03-.74 20.8-20.2 123.94-8.44 44.8-10.97 57.49-11.6 58.11-1.03 1.03-15.34 1.77-35.79 1.85-11.68.04-21.37-.06-21.53-.22-.3-.3 1.88-12.13 11.11-60.3 8.67-45.25 14.01-75.63 15.9-90.43 1.27-9.9.95-18.73-.83-22.75-2.82-6.37-7.93-8.76-15.39-7.2-8.26 1.72-14.29 5.65-23.66 15.43-18.45 19.26-35.67 49.4-45.46 79.6-4.35 13.42-8.19 30.06-15 65.09-2.05 10.54-3.97 19.74-4.27 20.43-.53 1.25-.68 1.27-10 1.18-5.2-.05-17.19-.3-26.64-.57zM2979.5 1900.27c0-1.38 3.02-17.54 27-144.4 13-68.84 26.37-139.62 29.68-157.3 3.32-17.67 6.38-32.69 6.81-33.37 1.5-2.4 4.1-2.64 28.4-2.61 12.56.02 23.7.22 24.75.45l1.9.42-.32 3.47c-.41 4.35-2.77 13.47-9.94 38.37a2138.1 2138.1 0 0 0-5.67 19.87c0 1.1 1.95-1.32 7.64-9.47 9.55-13.69 15.14-20.53 23.89-29.26 11.58-11.55 21-18 33.6-23.05 9.36-3.75 12.25-4.2 27.04-4.13 7.13.03 14.19.33 15.68.67 4.12.93 11.78 4.95 16.26 8.52 9.97 7.94 16.94 20.93 19.34 36.06 1.93 12.15 2.1 40.67.32 54.39-4.35 33.62-18.44 66.93-37.9 89.65-15.5 18.1-35.88 31.52-59.93 39.47-12.97 4.28-23.98 5.57-53.46 6.24-11.73.27-17.47.6-17.62 1.02-.12.34-4.64 23.91-10.05 52.39-5.4 28.47-9.94 51.9-10.09 52.04-.45.45-27.65 1.29-42.81 1.3-11.9.02-14.52-.11-14.52-.74zm128.45-153.94c19.67-4.96 40.8-27.81 51.11-55.3 5-13.31 7.57-27.6 8.01-44.53.4-15.16-.34-22.37-2.85-27.63-3.26-6.84-6.16-8.73-13.33-8.73-7.4.01-13.14 2.47-21.04 9.01-21.01 17.4-40.94 50.65-54.25 90.5-5.87 17.54-8.58 30.94-6.91 34.04 1.57 2.9 8.74 4 24.41 3.73 7.89-.13 12.35-.46 14.85-1.1zM3289.3 1794.25c-13.07-3.02-23.57-11.85-30.4-25.55-4.2-8.43-5.3-12.43-6.03-21.85-.93-12.13-.36-53.57.83-60.33 3.73-21.06 13.3-46.47 24.44-64.82 12.35-20.35 30.94-37.21 52.87-47.95 10.23-5.01 17.13-7.6 27.12-10.15 13.82-3.55 18.35-3.93 46.17-3.9 25.71.04 33.35.47 54.88 3.1 15.3 1.87 16.44 2.32 16.44 6.55 0 5.03-1.93 16.04-18.62 106.46-6.18 33.49-13.36 72.65-15.96 87.02-2.99 16.52-5 26.3-5.47 26.6-1.49.91-13.06 1.25-33.48.97-11.5-.15-21.32-.46-21.82-.67-.77-.32-.84-.77-.4-2.75 1.1-4.87 6.36-23.3 12.05-42.25 3.24-10.77 5.9-20.01 5.9-20.54 0-.52-2.74 3.1-6.09 8.06-13.77 20.38-25.95 34.37-39.02 44.84-16.62 13.32-27.42 17.22-49.04 17.7-8.12.18-11.88.04-14.38-.54zm44.29-50.85c12.4-3.68 25.39-15.81 39.15-36.58 17.6-26.55 31.7-60.12 37.51-89.27 1.5-7.55 1.29-8.87-1.59-9.6-2.03-.53-9.4-1.36-18.17-2.06-14.8-1.18-30.52 4.11-41.87 14.1-17.56 15.44-27.5 32.72-33.96 59-2.78 11.31-3.22 16.57-2.98 35.19.2 15.23.29 16.53 1.45 19.45 3.67 9.22 10.81 12.63 20.46 9.77zM3931.2 1554.81l-1.65 3.28c-2.5 4.99-6.5 14.22-16.06 37.1-18.44 44.12-33.76 77.7-53.5 117.27-12.23 24.5-13.41 26.34-14.2 22.13-.18-1.01-.72-10.34-1.18-20.72-1.04-23.33-2.12-37-4.27-54.13-3.68-29.37-12.27-75.65-17.1-92.17l-1.31-4.51h-31.05c-17.08.02-31.21.18-31.42.38-.49.5.66 6.04 6.3 30.34 13.04 56.28 18.15 82.89 22.47 116.99 2.06 16.27 2.5 27.15 2.52 62.34v31.33l-1.45 3.62c-.8 2-2.73 6.07-4.3 9.06-8.87 17.06-25.2 30.95-41.6 35.38-9.92 2.67-17.54 2.82-32.32.6-9.56-1.42-9.2-1.45-9.9.72-1.46 4.6-6.95 34.4-8.25 44.77l-.36 2.91 3.25.68c1.79.37 4.41.87 5.83 1.1 3.81.65 32.75.65 38.92 0 17.86-1.89 40.67-12.27 57.52-26.2 6.95-5.74 32.58-31.4 39.7-39.75 12-14.07 30.45-40.04 45.4-63.94 28.99-46.32 60.1-106.53 92.18-178.48 7.03-15.75 9.48-21.65 10.1-24.31.43-1.88.79-1.73-15.72-6.44-16.61-4.75-31.25-8.46-35.35-8.96zm-241.04 4.45l-18.34.3c-10.77.18-19.38.57-20.87.95-3.62.92-12.45 4.85-17.97 8-17.2 9.85-30.8 23.9-48.32 49.93-2.77 4.1-5.22 7.47-5.46 7.47-.58.01-.47-.42 5.3-20.22 5.63-19.32 9.34-33.67 9.87-38.16.34-2.94.3-3.05-1.27-3.74-1.23-.53-7.96-.71-27.37-.72-14.16-.01-25.9.14-26.08.32-.19.19-4.02 20.23-8.52 44.54-8.98 48.5-11.74 63.15-23.39 124.26-9.67 50.76-10.73 56.87-10 57.3.08.05 3.57.26 7.75.46 4.19.21 16.92.43 28.3.49l20.67.1.58-2.96c6.7-34.55 10.72-53.41 14.82-69.48 9.22-36.2 29.95-73.89 52.4-95.24 10.06-9.58 14.63-12.07 23.05-12.57 5.92-.35 8.97.41 11.8 2.98 4.4 3.98 5.91 11.21 4.59 22.04-1.18 9.62-5.33 33.2-15.47 87.86-12.17 65.61-12.05 64.92-11.23 65.74 1.21 1.21 11.13 1.68 28.91 1.36 19.1-.34 25.28-.67 26.46-1.4.94-.58 2.3-6.53 8.2-35.82 9.12-45.37 18.66-96.47 20.85-111.72 3.81-26.53 3.71-44.42-.3-55.15-3.5-9.35-12.73-18.77-23.9-24.38z"/>
  <path stroke="#000" stroke-width=".56" d="M3699.48 1903.03c-6.63-1.25-6.81-1.32-6.8-2.7.02-5.47 7.8-46.72 9.04-48.02.31-.32 4.3-.02 10.31.78 7.87 1.04 11.4 1.24 17.91 1.01 10.01-.36 14.82-1.55 23.33-5.75 14.58-7.21 25.5-18.77 33.72-35.69l3.49-7.18.17-23.96c.2-26.84-.59-54.1-1.87-65.12-3.5-29.86-9.13-60.96-18.64-102.68-7.85-34.46-10.95-48.44-10.95-49.3 0-1.36 6.33-1.64 36.67-1.64h26.34l.29 1.27c.16.7 1.2 4.82 2.33 9.16 3.9 15.05 10.68 51.2 14.12 75.26 3.03 21.26 4.4 36.51 5.64 62.58.94 20.05 1.31 24.66 2 25.08.81.51 3.75-4.83 14.55-26.5a1654.59 1654.59 0 0 0 45.35-98.37c18.35-43.1 20.84-48.87 22.58-52.43l1.8-3.66 3.22.1c3.4.12 20.04 4.24 37.93 9.4 14.58 4.19 13.99 3.93 13.52 6.08-1.12 5.06-18.86 44.63-36.88 82.23-40.14 83.74-84.27 155.92-116.9 191.19-8.21 8.87-27.5 27.85-33.38 32.85-13.17 11.2-34.07 21.63-51.02 25.46-5.86 1.32-41.54 1.73-47.87.55z"/>
</svg>