<?xml version="1.0" encoding="UTF-8"?><svg id="Calque_2" xmlns="http://www.w3.org/2000/svg" viewBox="0 0 252.21 30.46"><defs><style>.cls-1{fill:#fdffff;}.cls-1,.cls-2,.cls-3,.cls-4,.cls-5,.cls-6,.cls-7,.cls-8,.cls-9,.cls-10,.cls-11,.cls-12,.cls-13,.cls-14,.cls-15,.cls-16,.cls-17{stroke-width:0px;}.cls-2{fill:#0e0e0e;}.cls-3{fill:#ede317;}.cls-4{fill:#fffdff;}.cls-5{fill:#f6f5f6;}.cls-6{fill:#f6f6f6;}.cls-7{fill:#fff;}.cls-8{fill:#202020;}.cls-9{fill:#f8f8f8;}.cls-10{fill:#201814;}.cls-11{fill:#30c;}.cls-12{fill:#414490;}.cls-13{fill:#f33;}.cls-14{fill:#ebebeb;}.cls-15{fill:#f9f9f9;}.cls-16{fill:#fcfcfc;}.cls-17{fill:#17161c;}</style></defs><g id="Calque_1-2"><path class="cls-3" d="m99.01,3.88h5.91c0,.14,0,.28,0,.42,0,5.68,0,11.36,0,17.04,0,.44.06.88.13,1.32.06.37.32.53.69.54.38,0,.66-.18.72-.55.08-.48.14-.97.14-1.46.01-5.59,0-11.19,0-16.78,0-.16,0-.32,0-.51h5.91c0,.1.02.22.02.34,0,5.48,0,10.97-.02,16.45,0,.72-.03,1.46-.2,2.16-.44,1.78-1.56,3-3.27,3.67-1.3.51-2.65.59-4.03.48-1.28-.11-2.49-.44-3.59-1.12-1.51-.93-2.33-2.31-2.35-4.06-.06-5.91-.07-11.82-.1-17.74,0-.06,0-.12.02-.19Z"/><path class="cls-3" d="m77.92,14.73c.39.14.78.26,1.14.42,1.2.54,1.88,1.46,1.9,2.78.04,2.83.05,5.65.07,8.48,0,.05-.01.09-.02.16h-5.5c0-.16,0-.31,0-.45,0-2.69-.02-5.39-.03-8.08,0-.26-.04-.51-.08-.77-.09-.54-.32-.77-.86-.86-.25-.04-.51-.06-.81-.1v10.25h-5.92V3.87c.12,0,.23,0,.35,0,1.72,0,3.45-.04,5.17.01,1.38.04,2.76.11,4.12.29,1.67.23,2.7,1.29,3.19,2.85.44,1.38.44,2.81.33,4.24-.03.4-.1.8-.16,1.2-.19,1.21-.94,1.86-2.11,2.11-.26.06-.53.11-.8.16Zm-4.17-6.98v5.06c.26-.03.49-.04.72-.08.7-.11.91-.25.96-.94.08-.99.06-1.98.02-2.98-.02-.48-.31-.83-.81-.93-.29-.06-.58-.09-.9-.13Z"/><path class="cls-3" d="m83.12,15.69c.05-2.54.09-4.55.14-6.55.07-2.97,2.02-5.18,4.98-5.65,1.69-.27,3.36-.23,4.97.42,2.09.84,3.32,2.4,3.5,4.65.13,1.64.14,3.29.16,4.93.02,1.93.03,3.86-.01,5.79-.02,1.1-.04,2.22-.26,3.3-.36,1.79-1.45,3.09-3.14,3.78-2.35.97-4.74.96-7.06-.1-1.82-.84-2.9-2.34-3.05-4.34-.16-2.25-.17-4.52-.22-6.24Zm5.98-.54c0,1.94,0,3.89,0,5.83,0,.53.04,1.06.12,1.58.07.45.33.64.77.64.44,0,.73-.2.8-.65.08-.48.14-.98.14-1.46.01-4.03,0-8.07,0-12.1,0-.37-.04-.74-.11-1.1-.09-.48-.34-.69-.76-.7-.44,0-.74.21-.83.68-.08.44-.13.9-.13,1.35-.01,1.98,0,3.96,0,5.94Z"/><path class="cls-3" d="m122.71,17.81h-1.14v-3.43h6.91v12.22h-3q-.72,0-.95-.67c-.1-.29-.19-.57-.3-.88-.31.35-.57.71-.88,1-.92.84-2.06,1.06-3.26.98-2.42-.15-4.51-1.85-5.07-4.19-.18-.73-.25-1.51-.25-2.26-.03-3.44-.03-6.89,0-10.33,0-.95.13-1.91.3-2.85.24-1.32,1.14-2.2,2.2-2.93,1.03-.72,2.21-1.02,3.44-1.09,1.58-.1,3.12.06,4.56.78,1.89.94,2.95,2.44,3.09,4.55.08,1.15.14,2.3.2,3.48h-5.96c0-.12-.02-.23-.02-.35-.02-1.09-.04-2.19-.06-3.28,0-.21-.03-.42-.07-.62-.09-.51-.33-.73-.81-.74-.48-.01-.76.19-.85.69-.08.43-.12.88-.12,1.32,0,4,0,7.99,0,11.99,0,.45.06.91.14,1.35.08.43.33.63.73.66.44.04.82-.15.95-.54.11-.32.2-.67.21-1,.02-1.26,0-2.53,0-3.85Z"/><path class="cls-3" d="m140.4,12.7v4.37h-3.67v4.94h4.32v4.56h-10.24V3.89h9.85v4.55h-3.93v4.27h3.66Z"/><path class="cls-3" d="m34.86,3.87c.11,0,.19,0,.28,0,2.78.05,5.56.06,8.34.17.83.03,1.69.24,2.46.54,1.57.61,2.38,1.87,2.48,3.53.1,1.63.14,3.26.14,4.9,0,3.02-.03,6.05-.06,9.07,0,.54-.07,1.08-.17,1.61-.31,1.57-1.37,2.39-2.87,2.68-.74.14-1.51.22-2.27.22-2.7.03-5.39.01-8.09.01-.07,0-.14,0-.24-.01V3.87Zm5.92,3.88v14.95c.25-.03.47-.05.68-.08.73-.12.99-.37,1.05-1.1.07-.83.12-1.67.12-2.5.01-2.69.01-5.38,0-8.07,0-.76-.05-1.52-.11-2.28-.03-.43-.32-.69-.73-.78-.32-.07-.65-.09-1.01-.13Z"/><path class="cls-3" d="m18.88,15.71c.05-2.55.09-4.55.14-6.55.07-2.98,2-5.18,4.96-5.66,1.72-.28,3.41-.23,5.04.44,2.06.85,3.26,2.39,3.44,4.61.14,1.65.14,3.31.16,4.97.02,1.92.03,3.84-.01,5.75-.02,1.1-.04,2.22-.25,3.3-.35,1.76-1.41,3.06-3.07,3.76-2.43,1.03-4.9,1.02-7.29-.14-1.74-.84-2.76-2.32-2.89-4.25-.16-2.25-.17-4.52-.22-6.23Zm5.98-.52c0,1.93,0,3.86,0,5.79,0,.53.04,1.06.12,1.58.07.45.34.63.77.64.44,0,.73-.2.8-.65.08-.48.14-.98.14-1.46.01-4.03.01-8.07,0-12.1,0-.39-.05-.78-.13-1.17-.08-.43-.34-.62-.74-.63-.41,0-.74.2-.81.61-.09.47-.14.95-.15,1.42-.02,1.99,0,3.98,0,5.98Z"/><path class="cls-3" d="m17.02,13.74h-5.99c0-.13,0-.26,0-.39,0-1.41,0-2.83-.01-4.24,0-.43-.06-.86-.13-1.28-.08-.45-.36-.63-.85-.64-.52-.01-.88.19-.98.61-.09.38-.15.78-.15,1.16-.01,4.17-.01,8.33,0,12.5,0,.36.06.73.14,1.09.09.43.42.64.91.64.49,0,.83-.21.91-.64.09-.48.15-.97.16-1.46.02-1.07.01-2.14.01-3.21,0-.13,0-.27,0-.42h5.91c0,.7.03,1.38,0,2.06-.05.95-.12,1.91-.25,2.86-.26,1.91-1.48,3.1-3.13,3.92-1.42.7-2.95.84-4.5.69-.79-.08-1.59-.22-2.34-.47-2.08-.68-3.28-2.14-3.52-4.32-.13-1.21-.22-2.42-.23-3.63-.03-2.81-.02-5.63.01-8.44,0-1.07.04-2.14.47-3.15.71-1.67,2-2.71,3.71-3.23,1.97-.59,3.96-.57,5.91.11,2.18.76,3.52,2.27,3.7,4.62.14,1.74.17,3.48.25,5.27Z"/><path class="cls-3" d="m60.61,3.89v4.53h-3.94v4.29h3.65v4.35h-3.66v4.94h4.31v4.57h-10.22V3.89h9.86Z"/><path class="cls-13" d="m123.03.47c.57.14,1.13.29,1.7.41,1.14.23,2.17.7,3.09,1.42.11.08.22.15.32.22.24-.29.46-.59.72-.84.64-.59,1.46-.75,2.29-.76,3.04-.02,6.09-.03,9.13,0,.85,0,1.71.16,2.35.8.32.32.58.73.74,1.15.26.65.3,1.36.27,2.06-.03.82.02,1.65-.01,2.47-.03.62-.13,1.24-.2,1.86-.08.6-.48,1-.89,1.45.5.47.74,1.12.77,1.78.05,1.6.04,3.21,0,4.82-.02.6-.21,1.21-.67,1.68-.1.1-.2.22-.3.33.29.24.62.45.89.73.61.63.76,1.45.79,2.27.04,1.13.03,2.26,0,3.39-.01.52-.09,1.05-.16,1.57-.13.89-.68,1.51-1.44,1.88-.47.23-1.04.35-1.56.36-3.28.03-6.56.07-9.83-.02-.92-.02-1.82-.1-2.75,0-1.08.13-2.19.03-3.29.03-.05,0-.1.01-.15,0-.96-.4-1.86-.01-2.75.23-1.35.38-2.65.13-3.97-.18-1.83-.44-3.23-1.51-4.48-2.88-.25.27-.5.58-.79.85-1.37,1.28-3.03,1.91-4.86,2.22-2.83.49-5.49.01-7.98-1.35-.83-.45-1.59-1.03-2.14-1.85-1.74,2.25-4.18,3.09-6.85,3.33-2.67.24-5.18-.33-7.42-1.87-.21.24-.41.52-.65.73-.65.59-1.46.73-2.29.75-1.38.03-2.76.03-4.14,0-.57-.01-1.14-.12-1.71-.18-.12-.01-.24,0-.36,0-.54.06-1.07.16-1.6.17-1.55.02-3.1.03-4.66,0-.81-.02-1.62-.15-2.27-.72-.4-.35-.72-.76-.86-1.29-.17-.66-.23-1.32-.23-2,0-7.09,0-14.19.01-21.28,0-.83.15-1.66.77-2.28.34-.33.76-.62,1.2-.79.64-.26,1.34-.27,2.03-.26,2.18.04,4.36.05,6.54.08,1.32.02,2.62.26,3.89.63,1.02.3,1.82.95,2.56,1.69.12.12.23.26.3.34.55-.47,1.1-.95,1.65-1.41,1.09-.9,2.39-1.28,3.74-1.56.32-.07.64-.15.96-.22.99,0,1.97,0,2.96,0,.05.02.09.04.14.05,1.73.34,3.46.66,4.85,1.91.13-.17.2-.34.33-.45.32-.27.64-.63,1.02-.75.62-.19,1.3-.29,1.95-.31,1.54-.04,3.08-.05,4.62,0,.88.03,1.76.07,2.65.02,1.71-.1,3.42-.05,5.13-.02.84.01,1.67.17,2.32.77.23.21.42.47.64.72.12-.09.26-.17.38-.27.83-.65,1.77-1.05,2.79-1.28.55-.12,1.1-.26,1.64-.39,1.03,0,2.07,0,3.1,0Zm-24.02,3.41c0,.07-.02.13-.02.19.03,5.91.03,11.83.1,17.74.02,1.75.84,3.13,2.35,4.06,1.1.68,2.31,1.01,3.59,1.12,1.38.11,2.73.03,4.03-.48,1.71-.67,2.83-1.9,3.27-3.67.17-.69.19-1.44.2-2.16.02-5.48.02-10.97.02-16.45,0-.12-.01-.23-.02-.34h-5.91c0,.19,0,.35,0,.51,0,5.59,0,11.19,0,16.78,0,.49-.06.98-.14,1.46-.06.37-.34.55-.72.55-.36,0-.63-.17-.69-.54-.07-.44-.13-.88-.13-1.32,0-5.68,0-11.36,0-17.04,0-.14,0-.28,0-.42h-5.91Zm-21.09,10.84c.27-.06.54-.11.8-.16,1.16-.24,1.92-.89,2.11-2.11.06-.4.13-.8.16-1.2.1-1.43.1-2.86-.33-4.24-.49-1.56-1.53-2.63-3.19-2.85-1.36-.18-2.74-.25-4.12-.29-1.72-.05-3.45-.01-5.17-.01-.12,0-.23,0-.35,0v22.7h5.92v-10.25c.3.03.56.05.81.1.54.09.77.32.86.86.04.25.08.51.08.77.01,2.69.02,5.39.03,8.08,0,.14,0,.29,0,.45h5.5c0-.06.02-.11.02-.16-.02-2.83-.03-5.65-.07-8.48-.02-1.32-.7-2.24-1.9-2.78-.37-.16-.75-.28-1.14-.42Zm5.2.97c.06,1.72.06,3.99.22,6.24.15,2,1.22,3.5,3.05,4.34,2.31,1.06,4.7,1.06,7.06.1,1.69-.7,2.79-2,3.14-3.78.21-1.07.23-2.2.26-3.3.04-1.93.04-3.86.01-5.79-.02-1.65-.02-3.3-.16-4.93-.18-2.25-1.41-3.8-3.5-4.65-1.61-.65-3.28-.68-4.97-.42-2.95.47-4.91,2.67-4.98,5.65-.05,2-.08,4.01-.14,6.55Zm39.59,2.11c0,1.32.01,2.58,0,3.85,0,.34-.1.68-.21,1-.14.39-.52.58-.95.54-.4-.04-.65-.23-.73-.66-.08-.44-.14-.9-.14-1.35-.01-4,0-7.99,0-11.99,0-.44.04-.88.12-1.32.09-.5.37-.7.85-.69.48.01.72.23.81.74.03.21.06.41.07.62.03,1.09.04,2.19.06,3.28,0,.12.01.24.02.35h5.96c-.07-1.18-.12-2.33-.2-3.48-.15-2.11-1.21-3.61-3.09-4.55-1.44-.72-2.99-.88-4.56-.78-1.23.07-2.41.38-3.44,1.09-1.05.73-1.96,1.61-2.2,2.93-.17.94-.29,1.9-.3,2.85-.03,3.44-.03,6.89,0,10.33,0,.76.08,1.53.25,2.26.56,2.34,2.66,4.04,5.07,4.19,1.2.08,2.34-.14,3.26-.98.32-.29.58-.65.88-1,.1.31.2.59.3.88q.23.67.95.67h3v-12.22h-6.91v3.43h1.14Zm17.69-5.11h-3.66v-4.27h3.93V3.89h-9.85v22.68h10.24v-4.56h-4.32v-4.94h3.67v-4.37Z"/><path class="cls-13" d="m27.29.47c.59.14,1.18.3,1.78.43,1.04.22,1.99.64,2.83,1.28.12.09.24.17.34.24.24-.27.43-.54.68-.76.65-.59,1.47-.74,2.29-.74,2.44,0,4.88.03,7.32.07,1.45.03,2.86.31,4.24.74.49.15.94.41,1.42.63.18-.21.37-.47.6-.68.65-.59,1.46-.75,2.29-.76,3.04-.02,6.09-.03,9.13,0,.85,0,1.71.16,2.35.8.32.32.58.73.75,1.15.27.66.29,1.38.28,2.1-.02.88.02,1.77-.01,2.66-.02.51-.12,1.02-.18,1.53-.07.65-.48,1.11-.92,1.56.72.79.84,1.76.84,2.77,0,.86-.02,1.72,0,2.58.03.72-.04,1.43-.28,2.1-.15.42-.46.79-.7,1.18.28.26.65.56.96.91.52.57.62,1.31.65,2.02.05,1.35.05,2.71,0,4.06-.04,1.18-.43,2.24-1.56,2.81-.48.24-1.06.37-1.6.38-3.29.03-6.58.05-9.87,0-.97-.01-1.9-.29-2.5-1.16-1.64.83-3.38,1.14-5.18,1.16-2.76.04-5.52.05-8.28,0-1.04-.02-2.02-.34-2.6-1.34-.04-.07-.1-.14-.16-.2-4.03,3.1-11.42,2.47-14.28-1.37-2.43,2.66-5.53,3.56-9.01,3.29-1.15-.09-2.33-.32-3.41-.72-2.62-.97-4.39-2.75-4.99-5.58C.19,22.05,0,20.49,0,18.89c0-2.91,0-5.83.01-8.74,0-1.47.17-2.94.73-4.3C1.81,3.28,3.76,1.64,6.47.92c.63-.16,1.26-.3,1.89-.45,1.06,0,2.12,0,3.18,0,.06.02.13.06.19.07,1.76.34,3.49.74,4.9,1.95.45.39.9.78,1.36,1.18-.01,0,.01,0,.03-.02,1.13-1.32,2.5-2.27,4.2-2.7.68-.17,1.36-.32,2.03-.49,1.01,0,2.02,0,3.03,0Zm7.56,3.39v22.71c.1,0,.17.01.24.01,2.7,0,5.39.02,8.09-.01.76,0,1.53-.08,2.27-.22,1.5-.29,2.56-1.11,2.87-2.68.1-.53.17-1.07.17-1.61.04-3.02.07-6.05.06-9.07,0-1.63-.04-3.27-.14-4.9-.1-1.65-.91-2.91-2.48-3.53-.78-.3-1.63-.51-2.46-.54-2.78-.11-5.56-.12-8.34-.17-.08,0-.17,0-.28,0Zm-15.98,11.85c.06,1.72.06,3.98.22,6.23.14,1.93,1.16,3.4,2.89,4.25,2.38,1.16,4.85,1.17,7.29.14,1.66-.7,2.72-2,3.07-3.76.21-1.08.23-2.2.25-3.3.04-1.92.04-3.84.01-5.75-.02-1.66-.02-3.32-.16-4.97-.18-2.22-1.38-3.76-3.44-4.61-1.63-.67-3.32-.71-5.04-.44-2.96.48-4.89,2.68-4.96,5.66-.05,2-.08,4.01-.14,6.55Zm-1.86-1.98c-.08-1.79-.11-3.53-.25-5.27-.18-2.35-1.52-3.85-3.7-4.62-1.95-.68-3.94-.71-5.91-.11-1.71.51-3,1.55-3.71,3.23-.43,1.01-.46,2.08-.47,3.15-.03,2.81-.04,5.63-.01,8.44.01,1.21.1,2.43.23,3.63.24,2.18,1.44,3.64,3.52,4.32.75.25,1.55.39,2.34.47,1.55.15,3.08.02,4.5-.69,1.64-.82,2.86-2.01,3.13-3.92.13-.95.19-1.9.25-2.86.04-.68,0-1.37,0-2.06h-5.91c0,.15,0,.29,0,.42,0,1.07.01,2.14-.01,3.21-.01.49-.07.98-.16,1.46-.08.43-.42.64-.91.64-.49,0-.82-.21-.91-.64-.08-.36-.14-.73-.14-1.09,0-4.17,0-8.33,0-12.5,0-.39.07-.78.15-1.16.1-.42.46-.62.98-.61.5.01.77.19.85.64.08.42.13.85.13,1.28.02,1.41.01,2.83.01,4.24,0,.13,0,.26,0,.39h5.99ZM60.61,3.89h-9.86v22.68h10.22v-4.57h-4.31v-4.94h3.66v-4.35h-3.65v-4.29h3.94V3.89Z"/><path class="cls-13" d="m73.76,7.75c.32.05.62.07.9.13.5.1.79.45.81.93.03.99.05,1.99-.02,2.98-.05.7-.27.83-.96.94-.23.04-.46.05-.72.08v-5.06Z"/><path class="cls-13" d="m89.1,15.15c0-1.98,0-3.96,0-5.94,0-.45.05-.91.13-1.35.08-.46.39-.69.83-.68.43,0,.68.21.76.7.07.36.11.73.11,1.1,0,4.03,0,8.07,0,12.1,0,.49-.06.98-.14,1.46-.07.45-.36.65-.8.65-.43,0-.7-.19-.77-.64-.08-.52-.12-1.05-.12-1.58-.01-1.94,0-3.89,0-5.83Z"/><path class="cls-13" d="m40.78,7.75c.36.04.69.06,1.01.13.41.09.7.35.73.78.06.76.11,1.52.11,2.28.01,2.69.01,5.38,0,8.07,0,.83-.05,1.67-.12,2.5-.06.73-.32.98-1.05,1.1-.22.04-.44.05-.68.08V7.75Z"/><path class="cls-13" d="m24.85,15.19c0-1.99,0-3.98,0-5.98,0-.48.06-.96.15-1.42.07-.4.4-.61.81-.61.41,0,.66.19.74.63.07.38.13.78.13,1.17,0,4.03,0,8.07,0,12.1,0,.49-.06.98-.14,1.46-.07.45-.36.66-.8.65-.43,0-.7-.19-.77-.64-.08-.52-.12-1.05-.12-1.58-.01-1.93,0-3.86,0-5.79Z"/><path class="cls-7" d="m204.03,30.46c-4.09,0-7.93-1.59-10.79-4.48-2.87-2.89-4.45-6.74-4.45-10.86,0-8.34,6.88-15.12,15.33-15.12,4.13.02,7.94,1.63,10.81,4.54,2.87,2.92,4.43,6.78,4.38,10.88-.1,8.29-6.94,15.03-15.24,15.03h-.03Zm-32.92,0c-4.09,0-7.92-1.6-10.78-4.49-2.86-2.89-4.44-6.75-4.44-10.87,0-8.32,6.9-15.09,15.37-15.09,8.36,0,15.15,6.83,15.15,15.22,0,4.08-1.59,7.92-4.47,10.79s-6.73,4.45-10.83,4.45h0Zm65.72,0c-4.04-.01-7.85-1.61-10.71-4.5-2.88-2.91-4.46-6.78-4.43-10.9.05-8.3,6.91-15.05,15.27-15.05s15.25,6.86,15.25,15.29c0,8.36-6.88,15.16-15.32,15.16h-.06Z"/><path class="cls-7" d="m204.04,29.4c7.79.02,14.12-6.25,14.21-13.98.1-7.92-6.29-14.31-14.07-14.34-7.91-.03-14.32,6.28-14.32,14.05,0,7.92,6.31,14.27,14.18,14.28ZM236.96,1.06c-7.78,0-14.16,6.32-14.21,13.99-.05,7.93,6.32,14.31,14.09,14.33,7.93.03,14.31-6.28,14.31-14.1,0-7.88-6.32-14.23-14.19-14.23Zm-51.61,14.16c0-7.77-6.34-14.15-14.08-14.16-7.9,0-14.31,6.28-14.31,14.03,0,7.94,6.29,14.3,14.15,14.3,7.89,0,14.24-6.32,14.24-14.18Z"/><path class="cls-8" d="m204.04,29.4c-7.87,0-14.18-6.35-14.18-14.28,0-7.78,6.41-14.08,14.32-14.05,7.78.03,14.17,6.43,14.07,14.34-.09,7.73-6.42,14-14.21,13.98Zm.02-.3c7.65,0,13.89-6.23,13.9-13.86,0-7.66-6.25-13.88-13.95-13.88-7.61,0-13.85,6.26-13.84,13.88,0,7.63,6.25,13.86,13.9,13.86Z"/><path class="cls-10" d="m236.96,1.06c7.86,0,14.19,6.34,14.19,14.23,0,7.82-6.39,14.13-14.31,14.1-7.77-.03-14.14-6.4-14.09-14.33.05-7.67,6.43-13.99,14.21-13.99Zm.01.3c-7.66.02-13.82,6.13-13.91,13.69-.09,7.8,6.15,13.96,13.72,14.05,7.78.08,14-6.13,14.05-13.72.05-7.76-6.17-14.01-13.87-14.02Z"/><path class="cls-17" d="m185.35,15.22c0,7.86-6.35,14.18-14.24,14.18-7.86,0-14.15-6.37-14.15-14.3,0-7.75,6.42-14.03,14.31-14.03,7.73,0,14.07,6.39,14.08,14.16Zm-14.17-13.86c-7.67,0-13.78,6.15-13.92,13.57-.15,7.9,6.19,14.04,13.63,14.16,7.89.13,14.05-6.19,14.16-13.63.12-7.86-6.26-14.11-13.87-14.11Z"/><path class="cls-1" d="m204.05,29.1c-7.65,0-13.89-6.23-13.9-13.86,0-7.62,6.23-13.87,13.84-13.88,7.7,0,13.96,6.21,13.95,13.88,0,7.63-6.25,13.86-13.9,13.86Zm10.02-10.9c-1.72-.98-3.42-1.94-5.15-2.93,1.74-1.03,3.43-2.03,5.15-3.04-.81-1.4-1.61-2.78-2.41-4.17-1.76,1.01-3.49,2.01-5.28,3.04v-5.95h-4.71v5.95c-1.75-1.03-3.44-2.03-5.16-3.04-.81,1.39-1.61,2.77-2.41,4.17,1.73,1.02,3.42,2.02,5.15,3.04-1.73.99-3.44,1.95-5.15,2.93.81,1.4,1.61,2.77,2.41,4.16,1.73-1.02,3.42-2.02,5.17-3.04v6.07h4.83v-6.05c1.74,1.02,3.43,2.02,5.15,3.03.81-1.4,1.6-2.77,2.41-4.16Z"/><path class="cls-13" d="m236.97,1.36c7.7,0,13.92,6.26,13.87,14.02-.05,7.58-6.27,13.8-14.05,13.72-7.57-.08-13.82-6.25-13.72-14.05.09-7.56,6.24-13.66,13.91-13.69Zm-.55,3.88c.61,1.42.43,2.4-.05,3.59-.2.5-.46.97-.71,1.45-.52.97-1.13,1.9-1.57,2.91-.87,2.03-.68,4.1.04,6.14.05.15.09.3.13.45-1.07-.93-1.69-2.06-1.72-3.49-.11.16-.2.31-.23.47-.29,1.51-.47,3.02.06,4.53.41,1.19.98,2.25,1.99,3.03,1.06.82,2.22,1.32,3.6.97,2.73-.68,4.55-3.86,3.83-6.69-.32-1.25-.93-2.37-1.6-3.45-.6-.96-.73-1.96-.36-3.03.05-.13.07-.28.1-.41-.86.9-1.77,1.76-1.66,3.16-.1-.13-.17-.24-.2-.36-.38-1.21-.36-2.41.08-3.61.3-.81.53-1.64.38-2.52-.23-1.33-.97-2.33-2.12-3.14Z"/><path class="cls-11" d="m171.18,1.34c7.61,0,13.99,6.25,13.87,14.11-.11,7.44-6.28,13.76-14.16,13.63-7.44-.12-13.78-6.26-13.63-14.16.14-7.43,6.25-13.58,13.92-13.57Zm0,0c7.61,0,13.99,6.25,13.87,14.11-.11,7.44-6.28,13.76-14.16,13.63-7.44-.12-13.78-6.26-13.63-14.16.14-7.43,6.25-13.58,13.92-13.57Zm-.09,3.77c-1.1,1.05-2.37,1.77-3.82,2.16-1.44.39-2.9.44-4.35.41.04.97.1,1.9.1,2.83,0,1.8-.07,3.61-.06,5.41,0,1.23.2,2.44.61,3.61.83,2.34,2.51,3.91,4.65,5.05,1.13.6,2.34,1,3.62.76,3.08-.58,5.32-2.33,6.71-5.12.99-1.99,1-4.17.95-6.34-.04-1.63-.08-3.26-.11-4.9,0-.41.04-.82.06-1.25-3.11.09-5.91-.62-8.35-2.63Z"/><path class="cls-2" d="m214.07,18.2c-.81,1.39-1.6,2.76-2.41,4.16-1.71-1.01-3.41-2.01-5.15-3.03v6.05h-4.83v-6.07c-1.74,1.03-3.44,2.03-5.17,3.04-.81-1.39-1.6-2.76-2.41-4.16,1.72-.98,3.42-1.94,5.15-2.93-1.73-1.02-3.42-2.02-5.15-3.04.81-1.39,1.6-2.77,2.41-4.17,1.72,1.01,3.41,2.01,5.16,3.04v-5.95h4.71v5.95c1.79-1.03,3.52-2.03,5.28-3.04.8,1.39,1.6,2.76,2.41,4.17-1.72,1.01-3.41,2.02-5.15,3.04,1.73.99,3.43,1.95,5.15,2.93Zm-10.45-3.12c.06.02.12.04.18.06.08-.11.14-.24.25-.32.38-.29.51-.67.51-1.15-.01-.99.03-1.99.04-2.98,0-.41,0-.82,0-1.2-.24.11-.48.26-.74.34-.27.08-.33.22-.32.48.04,1.08.06,2.16.08,3.23,0,.51,0,1.02,0,1.53Zm1.25-2.4c0,.33-.02.61,0,.89.04.53-.17.96-.57,1.29-.34.28-.68.56-1.03.84-.52.43-.45,1.34.14,1.71.12-.57.3-.83.8-1.18.26-.18.53-.35.78-.55.95-.77.91-2.28-.13-3Zm-1.6.09c.1-.7-.01-1.32-.38-1.92-.29-.47-.12-.81.39-1.02.26-.11.54-.17.79-.3.15-.08.35-.28.33-.4-.02-.16-.2-.35-.36-.42-.62-.24-1.37.09-1.68.71-.49.97-.03,2.69.9,3.35Zm1.52,4.78c-.01.06-.03.1-.03.15,0,.8-.32,1.39-.97,1.87-.28.2-.46.6-.58.94-.14.37.05.83.32,1.02,0-.04,0-.07,0-.11-.01-.58.25-.99.74-1.3.95-.6,1.19-1.82.52-2.56Zm-.36-1.22c-.34.24-.68.44-.7.84-.04.68-.01,1.35-.01,2.1.43-.24.7-.49.71-.89.02-.66,0-1.32,0-2.05Zm.21-7.59c0-.44.01-.94,0-1.44,0-.34-.27-.46-.55-.46-.27,0-.53.1-.56.42-.03.39,0,.78,0,1.1.41.14.77.27,1.12.39Zm-.24,11.58c-.44.19-.61.46-.6.85.01.64.02,1.27.03,1.91,0,.18.02.37.07.54.03.09.15.14.3.28-.04-.23-.1-.34-.07-.42.4-1.01.15-2.06.27-3.15Zm0,3.08c.5-.37.6-.9.26-1.26-.08.41-.17.81-.26,1.26Z"/><path class="cls-4" d="m236.41,5.24c1.15.8,1.89,1.81,2.12,3.14.15.87-.08,1.7-.38,2.52-.44,1.19-.46,2.4-.08,3.61.04.12.11.24.2.36-.11-1.4.8-2.26,1.66-3.16-.03.14-.05.28-.1.41-.37,1.07-.24,2.07.36,3.03.67,1.08,1.28,2.2,1.6,3.45.71,2.83-1.1,6-3.83,6.69-1.38.34-2.54-.15-3.6-.97-1.01-.78-1.58-1.84-1.99-3.03-.53-1.51-.35-3.02-.06-4.53.03-.16.11-.31.23-.47.04,1.43.65,2.56,1.72,3.49-.04-.15-.08-.3-.13-.45-.72-2.04-.91-4.11-.04-6.14.43-1.01,1.05-1.94,1.57-2.91.25-.47.51-.95.71-1.45.48-1.19.66-2.17.05-3.59Z"/><path class="cls-4" d="m171.09,5.13c2.43,2.01,5.24,2.72,8.35,2.63-.02.43-.07.84-.06,1.25.03,1.63.07,3.26.11,4.9.05,2.17.04,4.35-.95,6.34-1.38,2.79-3.63,4.54-6.71,5.12-1.28.24-2.49-.16-3.62-.76-2.15-1.13-3.82-2.71-4.65-5.05-.41-1.17-.61-2.38-.61-3.61,0-1.8.06-3.61.06-5.41,0-.93-.06-1.86-.1-2.83,1.45.02,2.92-.03,4.35-.41,1.45-.39,2.72-1.11,3.82-2.16Zm.12,3.43c-.07.14-.11.23-.14.31-.51,1.3-1.02,2.6-1.55,3.89-.05.13-.2.31-.32.32-.95.1-1.91.16-2.86.24-.6.05-1.21.1-1.87.16.11.09.16.15.21.19,1.08.85,2.16,1.71,3.25,2.55.19.15.25.28.19.52-.16.7-.29,1.42-.43,2.12-.15.75-.29,1.5-.45,2.33,1.36-.93,2.64-1.81,3.93-2.7,1.36.92,2.71,1.83,4.11,2.77,0-.13,0-.21-.02-.27-.33-1.41-.65-2.82-.99-4.22-.06-.23,0-.36.18-.5,1.08-.89,2.15-1.79,3.23-2.69.05-.04.08-.1.13-.18-1.55-.09-3.06-.19-4.56-.27-.22-.01-.29-.1-.36-.28-.21-.56-.43-1.12-.66-1.68-.34-.85-.68-1.7-1.04-2.61Z"/><path class="cls-9" d="m203.62,15.08c0-.51,0-1.02,0-1.53-.02-1.08-.04-2.16-.08-3.23,0-.26.05-.4.32-.48.26-.08.5-.22.74-.34,0,.38,0,.79,0,1.2-.02.99-.06,1.99-.04,2.98,0,.48-.13.85-.51,1.15-.1.08-.16.21-.25.32-.06-.02-.12-.04-.18-.06Z"/><path class="cls-15" d="m204.88,12.69c1.03.72,1.08,2.24.13,3-.25.2-.52.37-.78.55-.49.35-.67.61-.8,1.18-.59-.37-.66-1.28-.14-1.71.34-.28.69-.56,1.03-.84.4-.34.61-.76.57-1.29-.02-.28,0-.56,0-.89Z"/><path class="cls-5" d="m203.27,12.78c-.93-.65-1.39-2.37-.9-3.35.31-.62,1.06-.95,1.68-.71.16.06.34.26.36.42.02.12-.18.31-.33.4-.24.13-.53.2-.79.3-.51.21-.68.55-.39,1.02.36.6.47,1.22.38,1.92Z"/><path class="cls-5" d="m204.79,17.57c.67.74.43,1.95-.52,2.56-.49.31-.75.72-.74,1.3,0,.04,0,.07,0,.11-.27-.19-.46-.65-.32-1.02.13-.34.3-.74.58-.94.66-.48.98-1.07.97-1.87,0-.05.02-.09.03-.15Z"/><path class="cls-6" d="m204.44,16.34c0,.73.01,1.39,0,2.05-.01.4-.28.65-.71.89,0-.74-.03-1.42.01-2.1.02-.4.36-.61.7-.84Z"/><path class="cls-16" d="m204.65,8.75c-.35-.12-.71-.25-1.12-.39,0-.32-.02-.71,0-1.1.02-.32.28-.43.56-.42.29,0,.55.12.55.46.01.5,0,1,0,1.44Z"/><path class="cls-15" d="m204.41,20.33c-.12,1.1.13,2.15-.27,3.15-.03.08.03.19.07.42-.15-.13-.27-.19-.3-.28-.05-.17-.07-.36-.07-.54-.02-.64-.02-1.27-.03-1.91,0-.39.16-.65.6-.85Z"/><path class="cls-14" d="m204.41,23.4c.09-.45.18-.86.26-1.26.34.36.24.9-.26,1.26Z"/><path class="cls-12" d="m171.21,8.56c.36.91.7,1.76,1.04,2.61.22.56.45,1.11.66,1.68.07.18.14.27.36.28,1.51.08,3.01.18,4.56.27-.06.08-.09.14-.13.18-1.07.9-2.15,1.8-3.23,2.69-.17.14-.23.27-.18.5.34,1.4.66,2.81.99,4.22.02.07.01.14.02.27-1.4-.94-2.75-1.85-4.11-2.77-1.29.88-2.57,1.76-3.93,2.7.16-.83.3-1.58.45-2.33.14-.71.27-1.42.43-2.12.06-.24,0-.37-.19-.52-1.09-.84-2.17-1.7-3.25-2.55-.06-.04-.11-.09-.21-.19.66-.06,1.26-.11,1.87-.16.95-.08,1.91-.14,2.86-.24.12-.01.27-.19.32-.32.53-1.29,1.03-2.59,1.55-3.89.03-.09.08-.17.14-.31Z"/><circle class="cls-2" cx="203.9" cy="8.94" r=".12"/></g></svg>