<?xml version="1.0" encoding="UTF-8"?><svg id="Calque_2" xmlns="http://www.w3.org/2000/svg" viewBox="0 0 116.5 116.5"><defs><style>.cls-1{fill:#fdffff;}.cls-1,.cls-2,.cls-3,.cls-4,.cls-5,.cls-6,.cls-7,.cls-8,.cls-9,.cls-10,.cls-11,.cls-12,.cls-13,.cls-14,.cls-15,.cls-16,.cls-17,.cls-18{stroke-width:0px;}.cls-2{fill:#0e0e0e;}.cls-3{fill:#ede317;}.cls-4{fill:#fffdff;}.cls-5{fill:#222221;}.cls-6{fill:#f6f5f6;}.cls-7{fill:#f6f6f6;}.cls-8{fill:#fff;}.cls-9{fill:#202020;}.cls-10{fill:#f8f8f8;}.cls-11{fill:#201814;}.cls-12{fill:#30c;}.cls-13{fill:#f33;}.cls-14{fill:#ebebeb;}.cls-15{fill:#f9f9f9;}.cls-16{fill:#c53235;}.cls-17{fill:#fcfcfc;}.cls-18{fill:#17161c;}</style></defs><g id="Calque_1-2"><circle class="cls-5" cx="58.25" cy="58.25" r="57.77" transform="translate(-8.58 106.42) rotate(-80.78)"/><path class="cls-8" d="m58.25.96c31.64,0,57.29,25.65,57.29,57.29s-25.65,57.29-57.29,57.29S.96,89.89.96,58.25,26.61.96,58.25.96m0-.96C26.13,0,0,26.13,0,58.25s26.13,58.25,58.25,58.25,58.25-26.13,58.25-58.25S90.37,0,58.25,0h0Z"/><path class="cls-3" d="m76.27,44.11h3.85c0,.11.01.22.01.33,0,3.6,0,7.2,0,10.8,0,.34.02.68.05,1.01.04.42.38.63.73.45.21-.11.26-.3.27-.51.03-.35.05-.71.05-1.06,0-3.56,0-7.12,0-10.68v-.35c.11,0,.19-.01.27-.01,1.11,0,2.23,0,3.34,0,.2,0,.28.04.28.26,0,3.62,0,7.25-.02,10.87,0,.58-.02,1.18-.25,1.73-.41.97-1.1,1.68-2.11,2-1.58.51-3.15.45-4.65-.31-1.18-.6-1.78-1.59-1.8-2.9-.03-3.8-.04-7.6-.06-11.4,0-.07,0-.14.01-.24Z"/><path class="cls-3" d="m64.47,58.98c-.67,0-1.31,0-1.96,0-.45,0-.9-.01-1.36,0-.22,0-.27-.07-.27-.28,0-1.35,0-2.69,0-4.04,0-.55,0-1.11-.07-1.66-.07-.6-.47-.84-1.11-.71v6.66h-3.86v-14.86c.1,0,.18-.01.27-.01,1.6.02,3.2.02,4.79.05.47.01.95.06,1.41.17,1.06.24,1.7.95,1.97,1.98.29,1.11.29,2.23.09,3.35-.17.95-.63,1.35-1.61,1.5-.09.01-.18.03-.32.06.25.09.47.15.68.24.84.35,1.31.98,1.32,1.9.02,1.82.03,3.64.04,5.46,0,.05,0,.09-.02.17Zm-4.77-10.71c0,.48,0,.97,0,1.45,0,.07.04.19.09.21.41.13.97-.17,1.01-.59.06-.58.07-1.17.05-1.76-.02-.67-.26-.88-.92-.93-.17-.01-.25.03-.24.22.01.47,0,.93,0,1.4Z"/><path class="cls-3" d="m74.89,51.15c-.03,1.68-.05,3.01-.09,4.33-.05,1.95-1.32,3.39-3.27,3.7-1.13.18-2.24.15-3.31-.29-1.32-.55-2.1-1.54-2.23-2.96-.09-.95-.1-1.91-.11-2.87-.01-1.53-.01-3.06.01-4.59,0-.61.04-1.23.17-1.82.26-1.19,1-2.03,2.13-2.48,1.47-.58,2.97-.58,4.43.05,1.27.55,2.02,1.56,2.12,2.94.1,1.45.11,2.91.14,4.01Zm-5.12.37c0,1.27,0,2.54,0,3.82,0,.32.02.64.07.96.04.32.22.46.52.46.3,0,.48-.14.53-.45.05-.32.09-.64.09-.96,0-2.63,0-5.25,0-7.88,0-.26-.04-.53-.08-.79-.05-.28-.22-.41-.49-.41-.27,0-.48.13-.53.4-.06.3-.09.61-.1.91-.01,1.31,0,2.63,0,3.94Z"/><path class="cls-3" d="m91.8,53.23h-.75v-2.25h4.52v8.01c-.13,0-.25,0-.36,0-.62,0-1.24,0-1.86,0-.16,0-.23-.05-.27-.2-.08-.27-.18-.53-.28-.85-.09.13-.16.23-.23.32-.62.82-1.48,1.06-2.46,1.01-1.58-.09-2.96-1.2-3.34-2.74-.12-.49-.17-1-.17-1.51-.02-2.26-.02-4.51,0-6.77,0-.56.07-1.13.16-1.68.18-1.12.93-1.81,1.87-2.32.89-.48,1.86-.55,2.85-.49.97.06,1.86.33,2.66.91.84.61,1.26,1.45,1.36,2.46.07.76.08,1.53.11,2.29,0,.03,0,.06-.02.11-.08,0-.16.01-.23.01-1.12,0-2.24,0-3.37,0-.22,0-.26-.08-.27-.28,0-.72-.02-1.45-.04-2.17,0-.13-.02-.26-.05-.38-.06-.31-.23-.45-.53-.46-.29,0-.48.12-.54.41-.05.28-.09.57-.09.86,0,2.64,0,5.28,0,7.93,0,.28.04.56.09.84.06.3.23.44.51.45.29.01.52-.12.6-.38.07-.2.12-.42.13-.64.01-.82,0-1.64,0-2.51Z"/><path class="cls-3" d="m97.12,44.1h6.44v2.97c-.08,0-.18.01-.27.01-.7,0-1.4,0-2.11,0-.07,0-.2.08-.2.13-.01.88,0,1.75,0,2.66.1,0,.19.02.27.02.62,0,1.24.01,1.86,0,.24,0,.3.08.29.3-.01.75-.01,1.5,0,2.25,0,.23-.05.32-.3.31-.64-.02-1.28,0-1.91,0-.1,0-.22-.02-.22.15,0,1.01,0,2.03,0,3.08h2.83v2.99h-6.69v-14.86Z"/><path class="cls-3" d="m34.23,58.98v-14.89c.11,0,.2,0,.29,0,1.6.02,3.2.01,4.79.06.74.02,1.48.09,2.18.39,1.02.45,1.57,1.25,1.63,2.34.07,1.36.09,2.72.09,4.08,0,1.7-.02,3.4-.04,5.1,0,.34-.05.68-.11,1.01-.21,1.04-.98,1.68-2.14,1.81-.54.06-1.09.09-1.64.1-1.58.01-3.16,0-4.75,0-.09,0-.19,0-.3,0Zm3.86-2.55c.19-.02.34-.03.48-.06.44-.07.59-.21.67-.64.04-.2.06-.4.06-.6,0-2.51,0-5.02,0-7.54,0-.65-.22-.88-.87-.94-.33-.03-.34-.03-.34.31,0,3.04,0,6.09,0,9.13v.33Z"/><path class="cls-3" d="m32.8,51.15c-.03,1.68-.05,3-.09,4.33-.05,1.95-1.32,3.39-3.27,3.7-1.13.18-2.24.15-3.31-.29-1.32-.55-2.1-1.54-2.23-2.96-.09-.95-.1-1.91-.11-2.87-.01-1.53-.01-3.06.01-4.59,0-.61.04-1.23.17-1.82.26-1.19,1-2.03,2.13-2.48,1.47-.58,2.97-.58,4.43.05,1.27.55,2.02,1.56,2.11,2.94.1,1.45.11,2.91.14,4.01Zm-5.12.35c0,1.27,0,2.54,0,3.82,0,.34.03.68.08,1.01.04.29.22.42.5.43.29,0,.48-.13.53-.42.05-.32.09-.66.09-.98,0-2.63,0-5.25,0-7.88,0-.26-.03-.53-.08-.79-.06-.29-.23-.42-.5-.42-.27,0-.47.14-.52.41-.06.3-.09.61-.09.91,0,1.3,0,2.61,0,3.91Z"/><path class="cls-3" d="m22.49,50.56h-3.85c0-.09-.01-.19-.01-.28,0-.91,0-1.82,0-2.73,0-.28-.03-.56-.08-.84-.06-.31-.24-.44-.57-.44-.35,0-.58.13-.64.43-.06.26-.1.53-.1.79,0,2.7,0,5.4,0,8.1,0,.25.04.5.09.74.06.3.28.44.61.44.33,0,.54-.15.59-.46.05-.31.09-.62.1-.93.02-.68,0-1.37,0-2.05,0-.1,0-.19,0-.31h3.84s.03.05.03.08c.02,1.05,0,2.09-.16,3.13-.18,1.16-.87,1.93-1.86,2.47-.98.54-2.05.65-3.14.55-.47-.04-.95-.13-1.4-.26-1.43-.43-2.28-1.39-2.44-2.89-.09-.81-.14-1.64-.15-2.45-.02-1.84,0-3.67,0-5.51,0-.46.03-.92.12-1.37.21-1.06.8-1.89,1.77-2.38,1.72-.88,3.48-.86,5.22-.08,1.21.54,1.85,1.54,1.93,2.85.07,1.08.08,2.17.11,3.26,0,.04,0,.08-.02.15Z"/><path class="cls-3" d="m44.66,44.1h6.44v2.97c-.08,0-.18.01-.27.01-.69,0-1.39,0-2.08,0-.1,0-.23-.04-.23.13,0,.88,0,1.75,0,2.66.1,0,.19.02.27.02.62,0,1.24.01,1.86,0,.24,0,.3.08.29.3-.01.75-.01,1.5,0,2.25,0,.23-.05.32-.3.31-.64-.02-1.28,0-1.91,0-.11,0-.22-.02-.22.15,0,1.01,0,2.03,0,3.08h2.83v2.99h-6.69v-14.86Z"/><path class="cls-16" d="m91.91,41.87c.4.09.79.2,1.2.28.76.15,1.44.46,2.05.94.06.05.13.09.19.13.2-.21.39-.43.6-.62.37-.33.85-.41,1.31-.42,2.04-.03,4.08-.04,6.13,0,.72.01,1.44.21,1.79.93.18.36.29.77.31,1.17.05.88.04,1.76,0,2.63-.03.62-.18,1.21-.71,1.64.03.05.05.1.08.14.36.42.45.94.46,1.46.02.65-.01,1.31,0,1.96.01.46-.02.91-.18,1.33-.11.28-.31.53-.46.8.19.17.43.37.64.6.34.36.4.85.42,1.3.04.89.04,1.79,0,2.68-.03.76-.28,1.46-1.02,1.82-.32.16-.71.25-1.07.25-2.13.02-4.26.05-6.39-.01-.62-.02-1.22-.07-1.85,0-.7.09-1.42.02-2.13.02-.03,0-.07,0-.1,0-.63-.27-1.22-.01-1.8.15-.88.24-1.72.09-2.57-.12-1.17-.29-2.11-.93-2.88-1.84-.02-.02-.04-.04-.05-.05-.3.28-.58.57-.88.82-.74.63-1.62.92-2.56,1.13-1.34.31-2.65.16-3.97-.17-1-.26-1.84-.77-2.59-1.44-.14-.12-.24-.28-.37-.43-1.14,1.47-2.74,2.02-4.48,2.18-1.75.16-3.39-.22-4.86-1.23-.15.17-.28.35-.45.5-.42.38-.95.47-1.48.48-.9.03-1.81.02-2.71,0-.37,0-.73-.08-1.1-.12-.09,0-.18,0-.26,0-.37.04-.75.11-1.12.12-.99.02-1.99.02-2.98,0-.52-.01-1.04-.1-1.46-.47-.27-.23-.47-.5-.57-.84-.12-.43-.15-.87-.15-1.31,0-4.64,0-9.28,0-13.92,0-.53.1-1.06.47-1.48.22-.26.48-.46.83-.55.43-.11.87-.16,1.31-.15,1.41.03,2.82.03,4.24.05.88.02,1.75.17,2.59.42.67.2,1.19.63,1.67,1.11.08.08.15.17.2.23.35-.31.7-.61,1.05-.9.73-.61,1.61-.87,2.51-1.05.22-.05.43-.1.65-.15.63,0,1.26,0,1.89,0,.04.02.08.04.13.05.49.12.99.22,1.48.35.62.16,1.15.49,1.66.88.15-.17.27-.34.42-.48.42-.38.96-.49,1.5-.5,1.12-.02,2.25-.04,3.36,0,.55.03,1.09.03,1.64,0,1.12-.05,2.24-.03,3.36,0,.54.01,1.08.11,1.5.5.16.14.29.32.43.48.06-.04.12-.08.18-.12.6-.48,1.28-.77,2.03-.92.34-.07.67-.16,1-.24.63,0,1.26,0,1.89,0Zm-15.63,2.24c0,.1-.01.17-.01.24.02,3.8.02,7.6.06,11.4.01,1.31.62,2.3,1.8,2.9,1.5.76,3.07.82,4.65.31,1.01-.33,1.69-1.04,2.11-2,.24-.55.25-1.15.25-1.73.01-3.62,0-7.25.02-10.87,0-.22-.08-.26-.28-.26-1.11,0-2.23,0-3.34,0-.08,0-.16,0-.27.01v.35c0,3.56,0,7.12,0,10.68,0,.35-.02.71-.05,1.06-.02.2-.06.4-.27.51-.35.17-.69-.03-.73-.45-.03-.34-.05-.67-.05-1.01,0-3.6,0-7.2,0-10.8,0-.11,0-.22-.01-.33h-3.85Zm-11.8,14.88c0-.08.02-.13.02-.17-.01-1.82-.02-3.64-.04-5.46-.01-.92-.49-1.54-1.32-1.9-.21-.09-.42-.15-.68-.24.13-.03.22-.05.32-.06.98-.15,1.44-.55,1.61-1.5.2-1.12.2-2.25-.09-3.35-.27-1.03-.91-1.74-1.97-1.98-.46-.11-.94-.16-1.41-.17-1.6-.03-3.2-.04-4.79-.05-.09,0-.17,0-.27.01v14.86h3.86v-6.66c.65-.13,1.05.11,1.11.71.06.55.07,1.11.07,1.66,0,1.35,0,2.69,0,4.04,0,.21.05.28.27.28.45-.02.9,0,1.36,0,.65,0,1.29,0,1.96,0Zm10.42-7.83c-.03-1.09-.04-2.55-.14-4.01-.1-1.38-.84-2.4-2.12-2.94-1.46-.62-2.96-.63-4.43-.05-1.13.44-1.87,1.29-2.13,2.48-.13.59-.16,1.21-.17,1.82-.03,1.53-.03,3.06-.01,4.59,0,.96.01,1.92.11,2.87.14,1.42.91,2.42,2.23,2.96,1.07.44,2.18.47,3.31.29,1.95-.31,3.22-1.75,3.27-3.7.03-1.32.05-2.64.09-4.33Zm16.91,2.08c0,.87,0,1.69,0,2.51,0,.21-.06.43-.13.64-.09.27-.32.4-.6.38-.28-.01-.46-.15-.51-.45-.05-.27-.09-.56-.09-.84,0-2.64,0-5.28,0-7.93,0-.29.04-.58.09-.86.06-.29.24-.42.54-.41.3,0,.47.15.53.46.02.13.04.25.05.38.02.72.04,1.45.04,2.17,0,.2.04.28.27.28,1.12-.01,2.24,0,3.37,0,.08,0,.16,0,.23-.01,0-.05.02-.08.02-.11-.03-.76-.04-1.53-.11-2.29-.09-1.01-.51-1.85-1.36-2.46-.8-.58-1.7-.85-2.66-.91-.99-.06-1.96.01-2.85.49-.94.51-1.69,1.2-1.87,2.32-.09.55-.15,1.12-.16,1.68-.02,2.26-.02,4.51,0,6.77,0,.5.05,1.02.17,1.51.37,1.53,1.75,2.65,3.34,2.74.98.06,1.84-.19,2.46-1.01.07-.09.14-.19.23-.32.11.32.2.58.28.85.04.15.11.2.27.2.62,0,1.24,0,1.86,0,.12,0,.24,0,.36,0v-8.01h-4.52v2.25h.75Zm5.32-9.13v14.86h6.69v-2.99h-2.83c0-1.05,0-2.06,0-3.08,0-.16.11-.15.22-.15.64,0,1.28-.01,1.91,0,.26,0,.31-.08.3-.31-.01-.75-.01-1.5,0-2.25,0-.23-.05-.31-.29-.3-.62.02-1.24,0-1.86,0-.09,0-.17,0-.27-.02,0-.9,0-1.78,0-2.66,0-.04.13-.12.2-.13.7,0,1.4,0,2.11,0,.09,0,.19,0,.27-.01v-2.97h-6.44Z"/><path class="cls-16" d="m29.23,41.87c.34.08.68.18,1.02.25.78.16,1.49.45,2.12.94.05.04.11.07.16.1.16-.17.29-.36.45-.51.42-.38.95-.48,1.48-.48,1.56,0,3.12.02,4.67.04.99.02,1.96.2,2.9.49.32.1.62.27.85.38.2-.17.4-.32.6-.49.38-.32.85-.41,1.31-.42,2.04-.03,4.08-.04,6.13,0,.72.01,1.44.21,1.79.93.18.36.29.77.31,1.17.05.87.04,1.74,0,2.61-.03.62-.17,1.23-.73,1.68.33.33.5.75.52,1.19.03,1.04.03,2.09,0,3.13-.01.39-.13.8-.43,1.1-.07.07-.14.16-.19.22.22.21.46.41.67.63.34.36.4.84.42,1.3.03.89.04,1.79,0,2.68-.03.76-.29,1.46-1.02,1.82-.32.16-.71.25-1.07.25-2.13.02-4.26.03-6.39,0-.65,0-1.28-.19-1.68-.77-1.1.56-2.27.75-3.48.77-1.78.02-3.55.03-5.33,0-.67-.01-1.31-.21-1.69-.85-.03-.05-.08-.1-.12-.15-1.48,1.03-3.13,1.42-4.89,1.25-1.75-.16-3.35-.7-4.46-2.15-.31.27-.59.55-.9.78-1.91,1.43-4.04,1.68-6.32,1.16-.75-.17-1.47-.4-2.12-.85-1.11-.76-1.82-1.76-2.09-3.09-.21-1-.34-2-.34-3.02,0-1.89,0-3.79,0-5.68,0-.99.1-1.98.48-2.89.7-1.7,1.98-2.78,3.77-3.24.42-.11.84-.2,1.26-.3.65,0,1.29,0,1.94,0,.06.02.12.04.18.06,1.17.22,2.32.49,3.26,1.29.3.25.59.51.88.77.79-.93,1.95-1.68,3.18-1.88.33-.06.65-.15.98-.23.63,0,1.26,0,1.89,0Zm5,17.11c.11,0,.21,0,.3,0,1.58,0,3.16,0,4.75,0,.55,0,1.1-.04,1.64-.1,1.16-.13,1.93-.77,2.14-1.81.07-.33.11-.67.11-1.01.02-1.7.05-3.4.04-5.1,0-1.36-.03-2.72-.09-4.08-.05-1.09-.6-1.9-1.63-2.34-.69-.3-1.44-.37-2.18-.39-1.6-.04-3.19-.04-4.79-.06-.09,0-.19,0-.29,0v14.89Zm-1.43-7.83c-.03-1.09-.04-2.55-.14-4.01-.1-1.38-.84-2.4-2.11-2.94-1.46-.62-2.96-.63-4.43-.05-1.13.44-1.87,1.29-2.13,2.48-.13.59-.16,1.21-.17,1.82-.03,1.53-.03,3.06-.01,4.59,0,.96.02,1.92.11,2.87.13,1.42.91,2.42,2.23,2.96,1.07.44,2.18.47,3.31.29,1.95-.31,3.22-1.75,3.27-3.7.03-1.32.05-2.64.09-4.33Zm-10.32-.59c0-.07.02-.11.02-.15-.03-1.09-.04-2.17-.11-3.26-.08-1.31-.73-2.31-1.93-2.85-1.74-.78-3.51-.8-5.22.08-.97.49-1.56,1.32-1.77,2.38-.09.45-.12.91-.12,1.37-.02,1.84-.03,3.67,0,5.51,0,.82.06,1.64.15,2.45.16,1.5,1.02,2.45,2.44,2.89.45.14.93.22,1.4.26,1.09.1,2.16,0,3.14-.55.99-.55,1.68-1.31,1.86-2.47.16-1.04.18-2.08.16-3.13,0-.03-.02-.06-.03-.08h-3.84c0,.12,0,.21,0,.31,0,.68,0,1.37,0,2.05,0,.31-.04.63-.1.93-.05.31-.27.45-.59.46-.33,0-.54-.14-.61-.44-.05-.24-.09-.49-.09-.74,0-2.7,0-5.4,0-8.1,0-.26.04-.53.1-.79.06-.3.29-.43.64-.43.33,0,.51.13.57.44.05.28.08.56.08.84.01.91,0,1.82,0,2.73,0,.09,0,.19.01.28h3.85Zm22.17-6.45v14.86h6.69v-2.99h-2.83c0-1.05,0-2.06,0-3.08,0-.16.11-.15.22-.15.64,0,1.28-.01,1.91,0,.26,0,.31-.08.3-.31-.01-.75-.01-1.5,0-2.25,0-.23-.05-.31-.29-.3-.62.02-1.24,0-1.86,0-.09,0-.17,0-.27-.02,0-.9,0-1.78,0-2.66,0-.17.13-.13.23-.13.69,0,1.39,0,2.08,0,.09,0,.19,0,.27-.01v-2.97h-6.44Z"/><path class="cls-16" d="m59.7,48.28c0-.47,0-.93,0-1.4,0-.19.07-.23.24-.22.66.05.9.26.92.93.02.58,0,1.17-.05,1.76-.04.42-.6.72-1.01.59-.05-.02-.09-.13-.09-.21,0-.48,0-.97,0-1.45Z"/><path class="cls-16" d="m69.77,51.52c0-1.31,0-2.63,0-3.94,0-.3.04-.61.1-.91.05-.27.26-.4.53-.4.26,0,.43.13.49.41.05.26.08.53.08.79,0,2.63,0,5.25,0,7.88,0,.32-.04.64-.09.96-.05.32-.23.46-.53.45-.29,0-.48-.15-.52-.46-.04-.32-.06-.64-.07-.96,0-1.27,0-2.54,0-3.82Z"/><path class="cls-16" d="m38.1,56.43v-.33c0-3.04,0-6.09,0-9.13,0-.34,0-.34.34-.31.65.06.87.29.87.94,0,2.51,0,5.02,0,7.54,0,.2-.03.4-.06.6-.08.43-.22.57-.67.64-.14.02-.28.04-.48.06Z"/><path class="cls-16" d="m27.68,51.51c0-1.3,0-2.61,0-3.91,0-.3.04-.61.09-.91.05-.27.25-.41.52-.41.27,0,.45.13.5.42.05.26.08.53.08.79,0,2.63,0,5.25,0,7.88,0,.33-.04.66-.09.98-.05.29-.24.43-.53.42-.28,0-.46-.13-.5-.43-.05-.33-.07-.67-.08-1.01,0-1.27,0-2.54,0-3.82Z"/><path class="cls-8" d="m58.47,84.06c-2.35,0-4.55-.92-6.2-2.57-1.65-1.66-2.55-3.87-2.55-6.24,0-4.79,3.95-8.68,8.81-8.68,2.37,0,4.56.94,6.21,2.61,1.65,1.68,2.54,3.9,2.51,6.25-.06,4.76-3.99,8.64-8.76,8.64h-.02Zm-18.91,0c-2.35,0-4.55-.92-6.19-2.58-1.64-1.66-2.55-3.88-2.55-6.25,0-4.78,3.96-8.67,8.83-8.67,4.8,0,8.7,3.93,8.7,8.74,0,2.35-.91,4.55-2.57,6.2s-3.87,2.56-6.22,2.56h0Zm37.75,0c-2.32,0-4.51-.93-6.15-2.59-1.66-1.67-2.56-3.9-2.55-6.26.03-4.77,3.97-8.64,8.78-8.64s8.76,3.94,8.76,8.78c0,4.8-3.95,8.71-8.8,8.71h-.03Z"/><path class="cls-8" d="m58.47,83.45c4.48,0,8.11-3.59,8.17-8.03.06-4.55-3.61-8.22-8.08-8.24-4.55-.02-8.23,3.61-8.23,8.07,0,4.55,3.62,8.2,8.15,8.2Zm18.91-16.28c-4.47,0-8.14,3.63-8.16,8.04-.03,4.56,3.63,8.22,8.09,8.24,4.55.02,8.22-3.61,8.22-8.1,0-4.53-3.63-8.17-8.15-8.17Zm-29.65,8.13c0-4.46-3.65-8.13-8.09-8.13-4.54,0-8.22,3.61-8.22,8.06,0,4.56,3.62,8.22,8.13,8.22,4.53,0,8.18-3.63,8.18-8.14Z"/><path class="cls-9" d="m58.47,83.45c-4.52,0-8.15-3.65-8.15-8.2,0-4.47,3.68-8.09,8.23-8.07,4.47.02,8.14,3.69,8.08,8.24-.05,4.44-3.69,8.04-8.17,8.03Zm0-.17c4.39,0,7.98-3.58,7.98-7.96,0-4.4-3.59-7.98-8.02-7.97-4.37,0-7.95,3.6-7.95,7.97,0,4.39,3.59,7.96,7.98,7.96Z"/><path class="cls-11" d="m77.38,67.17c4.52,0,8.15,3.64,8.15,8.17,0,4.49-3.67,8.12-8.22,8.1-4.46-.02-8.12-3.68-8.09-8.24.03-4.41,3.7-8.04,8.16-8.04Zm0,.17c-4.4.01-7.94,3.52-7.99,7.86-.05,4.48,3.53,8.02,7.88,8.07,4.47.05,8.04-3.52,8.07-7.88.03-4.46-3.54-8.05-7.97-8.05Z"/><path class="cls-18" d="m47.73,75.3c0,4.51-3.65,8.14-8.18,8.14-4.51,0-8.13-3.66-8.13-8.22,0-4.45,3.69-8.06,8.22-8.06,4.44,0,8.09,3.67,8.09,8.13Zm-8.14-7.96c-4.4,0-7.92,3.53-8,7.8-.09,4.54,3.56,8.06,7.83,8.14,4.53.08,8.07-3.55,8.14-7.83.07-4.52-3.6-8.11-7.97-8.1Z"/><path class="cls-1" d="m58.48,83.28c-4.39,0-7.98-3.58-7.98-7.96,0-4.38,3.58-7.97,7.95-7.97,4.43,0,8.02,3.57,8.02,7.97,0,4.39-3.59,7.96-7.98,7.96Zm5.76-6.26c-.99-.56-1.96-1.12-2.96-1.68,1-.59,1.97-1.17,2.96-1.75-.47-.81-.93-1.6-1.39-2.39-1.01.58-2,1.16-3.03,1.75v-3.42h-2.71v3.42c-1-.59-1.98-1.16-2.96-1.75-.46.8-.92,1.59-1.39,2.39.99.59,1.96,1.16,2.96,1.75-1,.57-1.97,1.12-2.96,1.68.47.8.92,1.59,1.39,2.39.99-.58,1.97-1.16,2.97-1.75v3.49h2.78v-3.48c1,.59,1.97,1.16,2.96,1.74.47-.81.92-1.59,1.39-2.39Z"/><path class="cls-13" d="m77.39,67.34c4.42,0,8,3.59,7.97,8.05-.03,4.36-3.6,7.93-8.07,7.88-4.35-.05-7.94-3.59-7.88-8.07.05-4.34,3.59-7.85,7.99-7.86Zm-.32,2.23c.35.82.25,1.38-.03,2.06-.12.29-.26.56-.41.83-.3.56-.65,1.09-.9,1.67-.5,1.17-.39,2.35.02,3.53.03.08.05.17.08.26-.62-.53-.97-1.19-.99-2.01-.06.09-.11.18-.13.27-.17.87-.27,1.74.03,2.6.24.68.57,1.29,1.14,1.74.61.47,1.28.76,2.07.56,1.57-.39,2.61-2.22,2.2-3.84-.18-.72-.53-1.36-.92-1.98-.34-.55-.42-1.13-.2-1.74.03-.08.04-.16.06-.24-.5.52-1.02,1.01-.95,1.82-.06-.07-.1-.14-.12-.21-.22-.7-.21-1.39.05-2.07.17-.47.31-.94.22-1.45-.13-.76-.56-1.34-1.22-1.8Z"/><path class="cls-12" d="m39.59,67.33c4.37,0,8.04,3.59,7.97,8.1-.07,4.28-3.61,7.91-8.14,7.83-4.27-.07-7.91-3.6-7.83-8.14.08-4.27,3.59-7.8,8-7.8Zm0,0c4.37,0,8.04,3.59,7.97,8.1-.07,4.28-3.61,7.91-8.14,7.83-4.27-.07-7.91-3.6-7.83-8.14.08-4.27,3.59-7.8,8-7.8Zm-.05,2.17c-.63.61-1.36,1.02-2.2,1.24-.82.22-1.67.25-2.5.24.02.56.06,1.09.06,1.63,0,1.04-.04,2.07-.04,3.11,0,.71.11,1.4.35,2.07.48,1.34,1.44,2.25,2.67,2.9.65.34,1.34.57,2.08.43,1.77-.33,3.06-1.34,3.85-2.94.57-1.15.57-2.4.55-3.64-.02-.94-.05-1.87-.06-2.81,0-.24.02-.47.04-.72-1.78.05-3.4-.35-4.8-1.51Z"/><path class="cls-2" d="m64.24,77.02c-.46.8-.92,1.58-1.39,2.39-.99-.58-1.96-1.15-2.96-1.74v3.48h-2.78v-3.49c-1,.59-1.98,1.16-2.97,1.75-.46-.8-.92-1.59-1.39-2.39.99-.56,1.96-1.12,2.96-1.68-.99-.59-1.96-1.16-2.96-1.75.46-.8.92-1.59,1.39-2.39.99.58,1.96,1.16,2.96,1.75v-3.42h2.71v3.42c1.03-.59,2.02-1.17,3.03-1.75.46.8.92,1.59,1.39,2.39-.99.58-1.96,1.16-2.96,1.75,1,.57,1.97,1.12,2.96,1.68Zm-6-1.79s.07.02.1.04c.05-.06.08-.14.14-.18.22-.17.29-.38.29-.66,0-.57.02-1.14.03-1.71,0-.24,0-.47,0-.69-.14.06-.27.15-.42.19-.15.05-.19.13-.18.27.02.62.03,1.24.04,1.86,0,.29,0,.59,0,.88Zm.72-1.38c0,.19,0,.35,0,.51.02.31-.1.55-.33.74-.19.16-.39.32-.59.48-.3.25-.26.77.08.98.07-.33.17-.48.46-.68.15-.11.31-.2.45-.32.55-.44.52-1.31-.07-1.73Zm-.92.05c.05-.4,0-.76-.22-1.1-.16-.27-.07-.46.23-.58.15-.06.31-.1.45-.17.09-.05.2-.16.19-.23-.01-.09-.12-.2-.21-.24-.35-.14-.79.05-.96.41-.28.56-.02,1.55.52,1.92Zm.87,2.75s-.02.06-.02.09c0,.46-.18.8-.56,1.07-.16.12-.26.34-.34.54-.08.21.03.48.18.58,0-.02,0-.04,0-.06,0-.33.14-.57.42-.75.55-.35.69-1.04.3-1.47Zm-.21-.7c-.2.14-.39.25-.4.48-.02.39,0,.78,0,1.21.25-.14.4-.28.41-.51.01-.38,0-.76,0-1.18Zm.12-4.36c0-.25,0-.54,0-.83,0-.2-.15-.26-.32-.27-.16,0-.31.06-.32.24-.02.22,0,.45,0,.63.24.08.44.15.64.22Zm-.14,6.65c-.26.11-.35.27-.35.49,0,.37,0,.73.02,1.1,0,.1.01.21.04.31.02.05.08.08.17.16-.02-.13-.06-.2-.04-.24.23-.58.08-1.18.16-1.81Zm0,1.77c.29-.21.35-.52.15-.73-.05.23-.1.46-.15.73Z"/><path class="cls-4" d="m77.07,69.57c.66.46,1.09,1.04,1.22,1.8.09.5-.05.98-.22,1.45-.25.69-.26,1.38-.05,2.07.02.07.06.14.12.21-.06-.8.46-1.3.95-1.82-.02.08-.03.16-.06.24-.21.61-.14,1.19.2,1.74.39.62.74,1.26.92,1.98.41,1.62-.63,3.45-2.2,3.84-.79.2-1.46-.09-2.07-.56-.58-.45-.91-1.06-1.14-1.74-.3-.87-.2-1.73-.03-2.6.02-.09.07-.18.13-.27.02.82.37,1.47.99,2.01-.03-.09-.05-.17-.08-.26-.41-1.17-.52-2.36-.02-3.53.25-.58.6-1.11.9-1.67.15-.27.29-.55.41-.83.28-.68.38-1.24.03-2.06Z"/><path class="cls-10" d="m58.23,75.23c0-.29,0-.59,0-.88-.01-.62-.02-1.24-.04-1.86,0-.15.03-.23.18-.27.15-.04.29-.13.42-.19,0,.22,0,.45,0,.69,0,.57-.03,1.14-.03,1.71,0,.28-.07.49-.29.66-.06.05-.09.12-.14.18-.03-.01-.07-.02-.1-.04Z"/><path class="cls-15" d="m58.95,73.85c.59.41.62,1.29.07,1.73-.14.11-.3.21-.45.32-.28.2-.39.35-.46.68-.34-.21-.38-.74-.08-.98.2-.16.39-.32.59-.48.23-.19.35-.44.33-.74-.01-.16,0-.32,0-.51Z"/><path class="cls-6" d="m58.03,73.9c-.54-.37-.8-1.36-.52-1.92.18-.35.61-.55.96-.41.09.04.2.15.21.24,0,.07-.11.18-.19.23-.14.08-.3.11-.45.17-.3.12-.39.31-.23.58.21.34.27.7.22,1.1Z"/><path class="cls-6" d="m58.9,76.65c.39.43.25,1.12-.3,1.47-.28.18-.43.41-.42.75,0,.02,0,.04,0,.06-.15-.11-.26-.37-.18-.58.07-.2.18-.42.34-.54.38-.27.56-.61.56-1.07,0-.03.01-.05.02-.09Z"/><path class="cls-7" d="m58.7,75.95c0,.42,0,.8,0,1.18,0,.23-.16.38-.41.51,0-.43-.02-.82,0-1.21.01-.23.21-.35.4-.48Z"/><path class="cls-17" d="m58.82,71.59c-.2-.07-.41-.14-.64-.22,0-.18-.01-.41,0-.63.01-.18.16-.24.32-.24.16,0,.31.07.32.27,0,.29,0,.58,0,.83Z"/><path class="cls-15" d="m58.68,78.24c-.07.63.07,1.23-.16,1.81-.02.05.02.11.04.24-.08-.08-.15-.11-.17-.16-.03-.1-.04-.21-.04-.31,0-.37-.01-.73-.02-1.1,0-.22.09-.37.35-.49Z"/><path class="cls-14" d="m58.68,80.01c.05-.26.1-.49.15-.73.2.21.14.51-.15.73Z"/><path class="cls-4" d="m44.37,74.55c-.02-.94-.05-1.87-.06-2.81,0-.24.02-.47.04-.72-1.78.05-3.4-.35-4.8-1.51-.63.61-1.36,1.02-2.2,1.24-.82.22-1.67.25-2.5.24.02.56.06,1.09.06,1.63,0,1.04-.04,2.07-.04,3.11,0,.71.11,1.4.35,2.07.48,1.34,1.44,2.25,2.67,2.9.65.34,1.34.57,2.08.43,1.77-.33,3.06-1.34,3.85-2.94.57-1.15.57-2.4.55-3.64Zm-1.03-.19c-.62.52-1.23,1.03-1.86,1.55-.1.08-.13.15-.1.29.2.81.38,1.62.57,2.42,0,.04,0,.08.01.16-.8-.54-1.58-1.06-2.36-1.59-.74.51-1.48,1.01-2.26,1.55.09-.48.17-.91.26-1.34.08-.41.15-.82.24-1.22.03-.14,0-.21-.11-.3-.63-.48-1.25-.97-1.87-1.46-.03-.03-.06-.05-.12-.11.38-.03.73-.06,1.07-.09.55-.04,1.1-.08,1.64-.14.07,0,.15-.11.18-.18.3-.74.59-1.49.89-2.23.02-.05.04-.1.08-.18.21.52.4,1.01.6,1.5.13.32.26.64.38.96.04.1.08.16.21.16.87.05,1.73.1,2.62.16-.03.05-.05.08-.08.1Z"/><circle class="cls-2" cx="58.39" cy="71.7" r=".07"/></g></svg>