<?xml version="1.0" encoding="UTF-8"?>
<svg xmlns="http://www.w3.org/2000/svg" xmlns:xlink="http://www.w3.org/1999/xlink" width="32px" height="32px" viewBox="0 0 32 32" version="1.1">
<g id="surface1">
<path style=" stroke:none;fill-rule:nonzero;fill:rgb(13.333334%,13.333334%,12.941177%);fill-opacity:1;" d="M 18.542969 0.339844 C 9.890625 -1.066406 1.742188 4.808594 0.335938 13.460938 C -1.066406 22.109375 4.808594 30.261719 13.457031 31.664062 C 22.109375 33.070312 30.257812 27.195312 31.664062 18.542969 C 33.066406 9.894531 27.191406 1.742188 18.542969 0.339844 Z M 18.542969 0.339844 "/>
<path style=" stroke:none;fill-rule:nonzero;fill:rgb(100%,100%,100%);fill-opacity:1;" d="M 16 0.265625 C 24.691406 0.265625 31.734375 7.308594 31.734375 16 C 31.734375 24.691406 24.691406 31.734375 16 31.734375 C 7.308594 31.734375 0.265625 24.691406 0.265625 16 C 0.265625 7.308594 7.308594 0.265625 16 0.265625 M 16 0 C 7.175781 0 0 7.175781 0 16 C 0 24.824219 7.175781 32 16 32 C 24.824219 32 32 24.824219 32 16 C 32 7.175781 24.824219 0 16 0 Z M 16 0 "/>
<path style=" stroke:none;fill-rule:nonzero;fill:rgb(92.941177%,89.019608%,9.019608%);fill-opacity:1;" d="M 20.949219 12.117188 L 22.007812 12.117188 C 22.007812 12.144531 22.011719 12.175781 22.011719 12.207031 C 22.011719 13.195312 22.011719 14.183594 22.011719 15.171875 C 22.011719 15.265625 22.015625 15.359375 22.023438 15.449219 C 22.035156 15.566406 22.128906 15.625 22.222656 15.574219 C 22.28125 15.542969 22.296875 15.492188 22.296875 15.433594 C 22.304688 15.339844 22.3125 15.238281 22.3125 15.144531 C 22.3125 14.164062 22.3125 13.1875 22.3125 12.210938 L 22.3125 12.113281 C 22.34375 12.113281 22.363281 12.109375 22.386719 12.109375 C 22.691406 12.109375 23 12.109375 23.304688 12.109375 C 23.359375 12.109375 23.378906 12.121094 23.378906 12.183594 C 23.378906 13.175781 23.378906 14.171875 23.375 15.167969 C 23.375 15.328125 23.371094 15.492188 23.304688 15.644531 C 23.195312 15.910156 23.003906 16.105469 22.726562 16.191406 C 22.292969 16.332031 21.863281 16.316406 21.449219 16.105469 C 21.125 15.941406 20.960938 15.671875 20.957031 15.3125 C 20.945312 14.265625 20.945312 13.222656 20.9375 12.179688 C 20.9375 12.160156 20.9375 12.140625 20.941406 12.113281 Z M 20.949219 12.117188 "/>
<path style=" stroke:none;fill-rule:nonzero;fill:rgb(92.941177%,89.019608%,9.019608%);fill-opacity:1;" d="M 17.707031 16.199219 C 17.523438 16.199219 17.347656 16.199219 17.171875 16.199219 C 17.046875 16.199219 16.921875 16.199219 16.796875 16.199219 C 16.734375 16.199219 16.722656 16.179688 16.722656 16.125 C 16.722656 15.753906 16.722656 15.382812 16.722656 15.015625 C 16.722656 14.863281 16.722656 14.710938 16.703125 14.558594 C 16.683594 14.394531 16.574219 14.328125 16.398438 14.363281 L 16.398438 16.191406 L 15.339844 16.191406 L 15.339844 12.109375 C 15.367188 12.109375 15.386719 12.109375 15.414062 12.109375 C 15.851562 12.113281 16.292969 12.113281 16.726562 12.121094 C 16.855469 12.125 16.988281 12.136719 17.113281 12.167969 C 17.40625 12.234375 17.582031 12.429688 17.65625 12.710938 C 17.734375 13.015625 17.734375 13.324219 17.679688 13.632812 C 17.632812 13.894531 17.507812 14.003906 17.238281 14.042969 C 17.214844 14.046875 17.1875 14.050781 17.152344 14.0625 C 17.21875 14.085938 17.28125 14.101562 17.335938 14.125 C 17.570312 14.222656 17.699219 14.394531 17.699219 14.648438 C 17.707031 15.148438 17.707031 15.648438 17.710938 16.148438 C 17.710938 16.160156 17.710938 16.171875 17.707031 16.195312 Z M 16.398438 13.257812 C 16.398438 13.390625 16.398438 13.523438 16.398438 13.65625 C 16.398438 13.675781 16.410156 13.710938 16.421875 13.714844 C 16.535156 13.75 16.6875 13.667969 16.699219 13.550781 C 16.71875 13.394531 16.71875 13.230469 16.714844 13.070312 C 16.707031 12.886719 16.644531 12.828125 16.460938 12.8125 C 16.414062 12.8125 16.394531 12.820312 16.394531 12.875 C 16.398438 13.003906 16.394531 13.128906 16.394531 13.257812 Z M 16.398438 13.257812 "/>
<path style=" stroke:none;fill-rule:nonzero;fill:rgb(92.941177%,89.019608%,9.019608%);fill-opacity:1;" d="M 20.570312 14.050781 C 20.5625 14.511719 20.558594 14.875 20.546875 15.238281 C 20.53125 15.773438 20.183594 16.171875 19.648438 16.253906 C 19.335938 16.304688 19.03125 16.296875 18.738281 16.175781 C 18.375 16.023438 18.160156 15.753906 18.125 15.363281 C 18.101562 15.101562 18.097656 14.839844 18.097656 14.574219 C 18.09375 14.152344 18.09375 13.734375 18.097656 13.3125 C 18.097656 13.144531 18.109375 12.976562 18.144531 12.8125 C 18.214844 12.488281 18.417969 12.257812 18.730469 12.132812 C 19.132812 11.972656 19.546875 11.972656 19.945312 12.144531 C 20.296875 12.296875 20.503906 12.574219 20.53125 12.953125 C 20.558594 13.351562 20.558594 13.753906 20.566406 14.054688 Z M 19.164062 14.152344 C 19.164062 14.5 19.164062 14.847656 19.164062 15.199219 C 19.164062 15.289062 19.167969 15.375 19.183594 15.464844 C 19.195312 15.550781 19.242188 15.589844 19.328125 15.589844 C 19.410156 15.589844 19.457031 15.550781 19.472656 15.46875 C 19.484375 15.378906 19.496094 15.292969 19.496094 15.203125 C 19.496094 14.480469 19.496094 13.761719 19.496094 13.039062 C 19.496094 12.96875 19.484375 12.894531 19.476562 12.820312 C 19.460938 12.746094 19.414062 12.710938 19.339844 12.710938 C 19.265625 12.710938 19.207031 12.746094 19.195312 12.820312 C 19.179688 12.902344 19.167969 12.988281 19.167969 13.070312 C 19.164062 13.429688 19.167969 13.792969 19.167969 14.152344 Z M 19.164062 14.152344 "/>
<path style=" stroke:none;fill-rule:nonzero;fill:rgb(92.941177%,89.019608%,9.019608%);fill-opacity:1;" d="M 25.214844 14.621094 L 25.007812 14.621094 L 25.007812 14.003906 L 26.25 14.003906 L 26.25 16.203125 C 26.214844 16.203125 26.183594 16.203125 26.152344 16.203125 C 25.980469 16.203125 25.8125 16.203125 25.640625 16.203125 C 25.597656 16.203125 25.578125 16.191406 25.566406 16.148438 C 25.546875 16.074219 25.519531 16.003906 25.488281 15.914062 C 25.464844 15.949219 25.445312 15.976562 25.425781 16.003906 C 25.257812 16.226562 25.019531 16.292969 24.75 16.28125 C 24.316406 16.253906 23.9375 15.949219 23.832031 15.527344 C 23.800781 15.394531 23.789062 15.253906 23.789062 15.113281 C 23.78125 14.492188 23.78125 13.875 23.789062 13.253906 C 23.789062 13.097656 23.804688 12.941406 23.832031 12.792969 C 23.878906 12.484375 24.085938 12.292969 24.34375 12.15625 C 24.589844 12.023438 24.855469 12.003906 25.128906 12.019531 C 25.394531 12.035156 25.636719 12.109375 25.859375 12.269531 C 26.089844 12.4375 26.203125 12.667969 26.230469 12.945312 C 26.25 13.15625 26.253906 13.367188 26.261719 13.574219 C 26.261719 13.582031 26.261719 13.589844 26.257812 13.605469 C 26.234375 13.605469 26.210938 13.609375 26.191406 13.609375 C 25.886719 13.609375 25.578125 13.609375 25.269531 13.609375 C 25.207031 13.609375 25.195312 13.585938 25.195312 13.53125 C 25.195312 13.332031 25.1875 13.132812 25.183594 12.933594 C 25.183594 12.898438 25.175781 12.863281 25.167969 12.832031 C 25.152344 12.746094 25.105469 12.707031 25.023438 12.703125 C 24.945312 12.703125 24.890625 12.738281 24.875 12.816406 C 24.859375 12.894531 24.851562 12.972656 24.851562 13.050781 C 24.851562 13.777344 24.851562 14.503906 24.851562 15.230469 C 24.851562 15.308594 24.859375 15.382812 24.875 15.460938 C 24.890625 15.542969 24.9375 15.582031 25.015625 15.585938 C 25.09375 15.589844 25.15625 15.550781 25.179688 15.480469 C 25.199219 15.425781 25.210938 15.367188 25.214844 15.304688 C 25.21875 15.078125 25.214844 14.855469 25.214844 14.617188 Z M 25.214844 14.621094 "/>
<path style=" stroke:none;fill-rule:nonzero;fill:rgb(92.941177%,89.019608%,9.019608%);fill-opacity:1;" d="M 26.675781 12.113281 L 28.445312 12.113281 L 28.445312 12.929688 C 28.421875 12.929688 28.394531 12.933594 28.371094 12.933594 C 28.179688 12.933594 27.988281 12.933594 27.792969 12.933594 C 27.773438 12.933594 27.738281 12.953125 27.738281 12.96875 C 27.734375 13.210938 27.738281 13.449219 27.738281 13.699219 C 27.765625 13.699219 27.789062 13.703125 27.8125 13.703125 C 27.980469 13.703125 28.152344 13.707031 28.320312 13.703125 C 28.386719 13.703125 28.40625 13.726562 28.402344 13.785156 C 28.398438 13.992188 28.398438 14.199219 28.402344 14.402344 C 28.402344 14.46875 28.386719 14.492188 28.320312 14.488281 C 28.144531 14.484375 27.96875 14.488281 27.792969 14.488281 C 27.765625 14.488281 27.734375 14.484375 27.734375 14.53125 C 27.734375 14.808594 27.734375 15.089844 27.734375 15.375 L 28.511719 15.375 L 28.511719 16.199219 L 26.675781 16.199219 Z M 26.675781 12.113281 "/>
<path style=" stroke:none;fill-rule:nonzero;fill:rgb(92.941177%,89.019608%,9.019608%);fill-opacity:1;" d="M 9.402344 16.199219 L 9.402344 12.109375 C 9.433594 12.109375 9.457031 12.109375 9.480469 12.109375 C 9.921875 12.117188 10.359375 12.113281 10.796875 12.128906 C 11 12.132812 11.203125 12.152344 11.394531 12.234375 C 11.675781 12.359375 11.828125 12.578125 11.84375 12.875 C 11.863281 13.25 11.867188 13.625 11.867188 13.996094 C 11.867188 14.464844 11.863281 14.929688 11.859375 15.398438 C 11.859375 15.492188 11.84375 15.585938 11.828125 15.675781 C 11.769531 15.960938 11.558594 16.136719 11.238281 16.171875 C 11.089844 16.191406 10.941406 16.199219 10.789062 16.199219 C 10.355469 16.203125 9.921875 16.199219 9.484375 16.199219 C 9.460938 16.199219 9.433594 16.199219 9.402344 16.199219 Z M 10.460938 15.5 C 10.515625 15.496094 10.554688 15.492188 10.59375 15.484375 C 10.714844 15.464844 10.757812 15.425781 10.777344 15.308594 C 10.789062 15.253906 10.792969 15.199219 10.792969 15.144531 C 10.792969 14.453125 10.792969 13.765625 10.792969 13.070312 C 10.792969 12.894531 10.734375 12.832031 10.554688 12.8125 C 10.464844 12.804688 10.460938 12.804688 10.460938 12.898438 C 10.460938 13.734375 10.460938 14.570312 10.460938 15.40625 Z M 10.460938 15.5 "/>
<path style=" stroke:none;fill-rule:nonzero;fill:rgb(92.941177%,89.019608%,9.019608%);fill-opacity:1;" d="M 9.007812 14.050781 C 9 14.511719 8.996094 14.875 8.984375 15.238281 C 8.972656 15.773438 8.621094 16.171875 8.085938 16.253906 C 7.777344 16.304688 7.472656 16.296875 7.175781 16.175781 C 6.816406 16.023438 6.601562 15.753906 6.566406 15.363281 C 6.539062 15.101562 6.539062 14.839844 6.535156 14.574219 C 6.53125 14.152344 6.53125 13.734375 6.539062 13.3125 C 6.539062 13.144531 6.546875 12.976562 6.585938 12.8125 C 6.65625 12.488281 6.859375 12.257812 7.167969 12.132812 C 7.574219 11.972656 7.984375 11.972656 8.386719 12.144531 C 8.734375 12.296875 8.941406 12.574219 8.964844 12.953125 C 8.992188 13.351562 8.996094 13.753906 9.003906 14.054688 Z M 7.601562 14.144531 C 7.601562 14.496094 7.601562 14.84375 7.601562 15.195312 C 7.601562 15.289062 7.613281 15.382812 7.625 15.472656 C 7.636719 15.550781 7.683594 15.589844 7.761719 15.589844 C 7.84375 15.589844 7.894531 15.554688 7.90625 15.476562 C 7.921875 15.386719 7.933594 15.292969 7.933594 15.207031 C 7.933594 14.484375 7.933594 13.765625 7.933594 13.042969 C 7.933594 12.96875 7.925781 12.894531 7.910156 12.824219 C 7.894531 12.746094 7.847656 12.710938 7.773438 12.710938 C 7.699219 12.710938 7.644531 12.746094 7.628906 12.820312 C 7.613281 12.90625 7.605469 12.988281 7.605469 13.070312 C 7.605469 13.429688 7.605469 13.789062 7.605469 14.144531 Z M 7.601562 14.144531 "/>
<path style=" stroke:none;fill-rule:nonzero;fill:rgb(92.941177%,89.019608%,9.019608%);fill-opacity:1;" d="M 6.175781 13.886719 L 5.121094 13.886719 C 5.121094 13.863281 5.117188 13.835938 5.117188 13.8125 C 5.117188 13.5625 5.117188 13.3125 5.117188 13.0625 C 5.117188 12.984375 5.109375 12.90625 5.09375 12.832031 C 5.078125 12.746094 5.03125 12.710938 4.9375 12.710938 C 4.84375 12.710938 4.78125 12.746094 4.761719 12.828125 C 4.746094 12.898438 4.734375 12.972656 4.734375 13.042969 C 4.734375 13.785156 4.734375 14.527344 4.734375 15.269531 C 4.734375 15.339844 4.746094 15.40625 4.761719 15.472656 C 4.777344 15.554688 4.835938 15.59375 4.925781 15.59375 C 5.019531 15.59375 5.074219 15.550781 5.089844 15.46875 C 5.105469 15.382812 5.113281 15.296875 5.117188 15.210938 C 5.121094 15.023438 5.117188 14.835938 5.117188 14.648438 C 5.117188 14.621094 5.117188 14.597656 5.117188 14.5625 L 6.171875 14.5625 C 6.171875 14.5625 6.179688 14.578125 6.179688 14.585938 C 6.1875 14.875 6.179688 15.160156 6.136719 15.445312 C 6.085938 15.765625 5.898438 15.976562 5.625 16.125 C 5.355469 16.273438 5.0625 16.300781 4.761719 16.273438 C 4.632812 16.265625 4.503906 16.238281 4.378906 16.203125 C 3.984375 16.085938 3.753906 15.820312 3.707031 15.410156 C 3.683594 15.1875 3.667969 14.957031 3.667969 14.738281 C 3.660156 14.230469 3.667969 13.726562 3.667969 13.222656 C 3.667969 13.097656 3.675781 12.96875 3.699219 12.847656 C 3.757812 12.554688 3.917969 12.328125 4.1875 12.191406 C 4.660156 11.953125 5.140625 11.957031 5.621094 12.171875 C 5.953125 12.320312 6.128906 12.59375 6.148438 12.953125 C 6.167969 13.25 6.171875 13.550781 6.179688 13.847656 C 6.179688 13.859375 6.179688 13.871094 6.175781 13.890625 Z M 6.175781 13.886719 "/>
<path style=" stroke:none;fill-rule:nonzero;fill:rgb(92.941177%,89.019608%,9.019608%);fill-opacity:1;" d="M 12.265625 12.113281 L 14.035156 12.113281 L 14.035156 12.929688 C 14.015625 12.929688 13.988281 12.933594 13.960938 12.933594 C 13.773438 12.933594 13.582031 12.933594 13.390625 12.933594 C 13.363281 12.933594 13.328125 12.921875 13.328125 12.96875 C 13.328125 13.210938 13.328125 13.449219 13.328125 13.699219 C 13.355469 13.699219 13.378906 13.703125 13.402344 13.703125 C 13.570312 13.703125 13.742188 13.707031 13.914062 13.703125 C 13.976562 13.703125 13.996094 13.726562 13.992188 13.785156 C 13.988281 13.992188 13.988281 14.199219 13.992188 14.402344 C 13.992188 14.46875 13.976562 14.492188 13.910156 14.488281 C 13.734375 14.484375 13.558594 14.488281 13.386719 14.488281 C 13.355469 14.488281 13.324219 14.484375 13.324219 14.53125 C 13.324219 14.808594 13.324219 15.089844 13.324219 15.375 L 14.101562 15.375 L 14.101562 16.199219 L 12.265625 16.199219 Z M 12.265625 12.113281 "/>
<path style=" stroke:none;fill-rule:nonzero;fill:rgb(77.254903%,19.607843%,20.784314%);fill-opacity:1;" d="M 25.246094 11.5 C 25.355469 11.527344 25.460938 11.554688 25.574219 11.578125 C 25.785156 11.617188 25.972656 11.703125 26.136719 11.835938 C 26.15625 11.851562 26.175781 11.859375 26.191406 11.871094 C 26.246094 11.8125 26.296875 11.753906 26.355469 11.703125 C 26.457031 11.609375 26.589844 11.589844 26.714844 11.585938 C 27.277344 11.578125 27.835938 11.574219 28.398438 11.585938 C 28.597656 11.589844 28.792969 11.644531 28.890625 11.839844 C 28.941406 11.941406 28.96875 12.054688 28.976562 12.164062 C 28.988281 12.40625 28.988281 12.644531 28.976562 12.886719 C 28.96875 13.054688 28.925781 13.21875 28.78125 13.335938 C 28.789062 13.347656 28.792969 13.363281 28.804688 13.375 C 28.902344 13.488281 28.925781 13.632812 28.929688 13.773438 C 28.933594 13.953125 28.925781 14.136719 28.929688 14.3125 C 28.933594 14.441406 28.921875 14.5625 28.878906 14.679688 C 28.847656 14.753906 28.792969 14.824219 28.753906 14.898438 C 28.804688 14.945312 28.871094 15 28.929688 15.0625 C 29.023438 15.164062 29.039062 15.296875 29.042969 15.421875 C 29.054688 15.664062 29.054688 15.910156 29.042969 16.15625 C 29.035156 16.367188 28.96875 16.558594 28.765625 16.65625 C 28.675781 16.699219 28.570312 16.726562 28.46875 16.726562 C 27.886719 16.730469 27.300781 16.738281 26.714844 16.722656 C 26.542969 16.71875 26.378906 16.703125 26.207031 16.722656 C 26.015625 16.746094 25.816406 16.726562 25.621094 16.726562 C 25.613281 16.726562 25.601562 16.726562 25.59375 16.726562 C 25.421875 16.652344 25.257812 16.726562 25.101562 16.769531 C 24.859375 16.835938 24.628906 16.792969 24.394531 16.734375 C 24.074219 16.65625 23.816406 16.480469 23.601562 16.230469 C 23.597656 16.226562 23.59375 16.21875 23.589844 16.21875 C 23.507812 16.292969 23.429688 16.375 23.347656 16.441406 C 23.144531 16.617188 22.902344 16.695312 22.644531 16.753906 C 22.277344 16.835938 21.917969 16.796875 21.554688 16.707031 C 21.28125 16.632812 21.046875 16.496094 20.84375 16.308594 C 20.804688 16.277344 20.777344 16.234375 20.742188 16.191406 C 20.429688 16.597656 19.988281 16.746094 19.511719 16.792969 C 19.03125 16.835938 18.578125 16.730469 18.175781 16.453125 C 18.132812 16.5 18.097656 16.550781 18.050781 16.589844 C 17.9375 16.695312 17.789062 16.71875 17.644531 16.722656 C 17.398438 16.730469 17.148438 16.726562 16.902344 16.722656 C 16.800781 16.722656 16.699219 16.699219 16.597656 16.6875 C 16.574219 16.6875 16.550781 16.6875 16.527344 16.6875 C 16.425781 16.699219 16.320312 16.71875 16.21875 16.722656 C 15.949219 16.726562 15.671875 16.726562 15.402344 16.722656 C 15.257812 16.71875 15.117188 16.695312 15 16.59375 C 14.925781 16.53125 14.871094 16.457031 14.84375 16.363281 C 14.8125 16.246094 14.800781 16.125 14.800781 16.003906 C 14.800781 14.726562 14.800781 13.453125 14.800781 12.179688 C 14.800781 12.035156 14.828125 11.886719 14.929688 11.773438 C 14.992188 11.703125 15.0625 11.644531 15.160156 11.621094 C 15.277344 11.589844 15.398438 11.578125 15.519531 11.582031 C 15.90625 11.589844 16.292969 11.589844 16.683594 11.59375 C 16.925781 11.601562 17.164062 11.640625 17.394531 11.710938 C 17.578125 11.765625 17.722656 11.882812 17.855469 12.015625 C 17.875 12.035156 17.894531 12.0625 17.910156 12.078125 C 18.003906 11.992188 18.101562 11.910156 18.199219 11.832031 C 18.398438 11.664062 18.640625 11.589844 18.886719 11.542969 C 18.949219 11.527344 19.003906 11.515625 19.066406 11.5 C 19.238281 11.5 19.410156 11.5 19.585938 11.5 C 19.59375 11.507812 19.605469 11.511719 19.621094 11.515625 C 19.753906 11.546875 19.890625 11.574219 20.027344 11.609375 C 20.195312 11.65625 20.34375 11.746094 20.484375 11.851562 C 20.523438 11.804688 20.558594 11.757812 20.597656 11.71875 C 20.714844 11.617188 20.863281 11.585938 21.011719 11.582031 C 21.316406 11.578125 21.628906 11.570312 21.933594 11.582031 C 22.085938 11.589844 22.234375 11.589844 22.382812 11.582031 C 22.691406 11.570312 23 11.574219 23.304688 11.582031 C 23.453125 11.585938 23.601562 11.613281 23.71875 11.71875 C 23.761719 11.757812 23.796875 11.808594 23.835938 11.851562 C 23.851562 11.839844 23.871094 11.832031 23.886719 11.820312 C 24.050781 11.6875 24.238281 11.609375 24.445312 11.566406 C 24.535156 11.546875 24.628906 11.523438 24.71875 11.5 C 24.890625 11.5 25.0625 11.5 25.238281 11.5 Z M 20.953125 12.117188 C 20.953125 12.144531 20.949219 12.164062 20.949219 12.183594 C 20.957031 13.226562 20.957031 14.269531 20.964844 15.3125 C 20.96875 15.671875 21.136719 15.945312 21.460938 16.109375 C 21.871094 16.320312 22.304688 16.335938 22.738281 16.195312 C 23.015625 16.105469 23.203125 15.910156 23.316406 15.644531 C 23.382812 15.496094 23.386719 15.328125 23.386719 15.171875 C 23.390625 14.175781 23.386719 13.179688 23.390625 12.183594 C 23.390625 12.125 23.371094 12.113281 23.316406 12.113281 C 23.011719 12.113281 22.703125 12.113281 22.398438 12.113281 C 22.375 12.113281 22.351562 12.113281 22.324219 12.117188 L 22.324219 12.210938 C 22.324219 13.191406 22.324219 14.167969 22.324219 15.144531 C 22.324219 15.242188 22.316406 15.339844 22.308594 15.4375 C 22.304688 15.492188 22.292969 15.546875 22.234375 15.578125 C 22.140625 15.625 22.046875 15.570312 22.035156 15.453125 C 22.027344 15.359375 22.019531 15.269531 22.019531 15.175781 C 22.019531 14.1875 22.019531 13.199219 22.019531 12.210938 C 22.019531 12.179688 22.019531 12.148438 22.019531 12.117188 Z M 17.710938 16.203125 C 17.710938 16.179688 17.714844 16.167969 17.714844 16.15625 C 17.714844 15.65625 17.710938 15.15625 17.707031 14.65625 C 17.703125 14.402344 17.570312 14.234375 17.34375 14.136719 C 17.285156 14.109375 17.226562 14.09375 17.15625 14.070312 C 17.191406 14.0625 17.21875 14.054688 17.246094 14.050781 C 17.511719 14.011719 17.640625 13.902344 17.6875 13.640625 C 17.742188 13.332031 17.742188 13.023438 17.660156 12.71875 C 17.585938 12.4375 17.410156 12.242188 17.121094 12.175781 C 16.996094 12.144531 16.863281 12.132812 16.734375 12.128906 C 16.292969 12.121094 15.855469 12.117188 15.417969 12.117188 C 15.394531 12.117188 15.371094 12.117188 15.34375 12.117188 L 15.34375 16.199219 L 16.402344 16.199219 L 16.402344 14.371094 C 16.582031 14.335938 16.691406 14.402344 16.707031 14.566406 C 16.726562 14.71875 16.726562 14.871094 16.726562 15.023438 C 16.726562 15.394531 16.726562 15.761719 16.726562 16.132812 C 16.726562 16.191406 16.742188 16.207031 16.800781 16.207031 C 16.925781 16.203125 17.050781 16.207031 17.175781 16.207031 C 17.355469 16.207031 17.53125 16.207031 17.714844 16.207031 Z M 20.574219 14.050781 C 20.566406 13.753906 20.5625 13.351562 20.535156 12.949219 C 20.507812 12.570312 20.304688 12.292969 19.953125 12.144531 C 19.550781 11.972656 19.140625 11.96875 18.734375 12.128906 C 18.425781 12.25 18.222656 12.484375 18.152344 12.8125 C 18.113281 12.972656 18.105469 13.144531 18.105469 13.3125 C 18.097656 13.730469 18.097656 14.152344 18.101562 14.570312 C 18.101562 14.835938 18.105469 15.097656 18.132812 15.359375 C 18.171875 15.75 18.382812 16.023438 18.742188 16.171875 C 19.039062 16.292969 19.34375 16.300781 19.652344 16.253906 C 20.1875 16.167969 20.539062 15.773438 20.550781 15.238281 C 20.558594 14.875 20.566406 14.511719 20.574219 14.046875 Z M 25.21875 14.625 C 25.21875 14.863281 25.21875 15.089844 25.21875 15.3125 C 25.21875 15.371094 25.203125 15.429688 25.183594 15.488281 C 25.15625 15.5625 25.09375 15.597656 25.019531 15.59375 C 24.941406 15.589844 24.890625 15.550781 24.878906 15.46875 C 24.863281 15.394531 24.851562 15.316406 24.851562 15.238281 C 24.851562 14.515625 24.851562 13.789062 24.851562 13.0625 C 24.851562 12.980469 24.863281 12.902344 24.878906 12.824219 C 24.894531 12.746094 24.945312 12.710938 25.027344 12.710938 C 25.109375 12.710938 25.15625 12.753906 25.171875 12.839844 C 25.175781 12.875 25.183594 12.90625 25.183594 12.941406 C 25.191406 13.140625 25.195312 13.339844 25.195312 13.539062 C 25.195312 13.59375 25.207031 13.617188 25.269531 13.617188 C 25.578125 13.613281 25.886719 13.617188 26.195312 13.617188 C 26.21875 13.617188 26.238281 13.617188 26.257812 13.613281 C 26.257812 13.597656 26.265625 13.589844 26.265625 13.582031 C 26.257812 13.375 26.253906 13.164062 26.234375 12.953125 C 26.210938 12.675781 26.09375 12.445312 25.859375 12.277344 C 25.640625 12.117188 25.394531 12.042969 25.128906 12.027344 C 24.859375 12.011719 24.59375 12.03125 24.347656 12.164062 C 24.089844 12.304688 23.882812 12.492188 23.832031 12.800781 C 23.808594 12.949219 23.792969 13.109375 23.789062 13.261719 C 23.785156 13.882812 23.785156 14.5 23.789062 15.121094 C 23.789062 15.257812 23.804688 15.402344 23.835938 15.535156 C 23.9375 15.957031 24.316406 16.265625 24.753906 16.289062 C 25.023438 16.304688 25.257812 16.234375 25.429688 16.011719 C 25.449219 15.984375 25.46875 15.957031 25.492188 15.921875 C 25.523438 16.011719 25.546875 16.082031 25.570312 16.15625 C 25.582031 16.199219 25.601562 16.210938 25.644531 16.210938 C 25.8125 16.210938 25.984375 16.210938 26.15625 16.210938 C 26.1875 16.210938 26.222656 16.210938 26.253906 16.210938 L 26.253906 14.011719 L 25.011719 14.011719 L 25.011719 14.628906 L 25.21875 14.628906 Z M 26.679688 12.117188 L 26.679688 16.199219 L 28.515625 16.199219 L 28.515625 15.375 L 27.738281 15.375 C 27.738281 15.089844 27.738281 14.8125 27.738281 14.53125 C 27.738281 14.488281 27.769531 14.488281 27.800781 14.488281 C 27.976562 14.488281 28.152344 14.488281 28.324219 14.488281 C 28.394531 14.488281 28.410156 14.46875 28.40625 14.402344 C 28.40625 14.199219 28.40625 13.992188 28.40625 13.785156 C 28.40625 13.722656 28.394531 13.699219 28.328125 13.703125 C 28.15625 13.710938 27.988281 13.703125 27.816406 13.703125 C 27.792969 13.703125 27.769531 13.703125 27.742188 13.699219 C 27.742188 13.449219 27.742188 13.210938 27.742188 12.96875 C 27.742188 12.957031 27.777344 12.933594 27.796875 12.933594 C 27.988281 12.933594 28.183594 12.933594 28.378906 12.933594 C 28.402344 12.933594 28.429688 12.933594 28.449219 12.929688 L 28.449219 12.113281 L 26.683594 12.113281 Z M 26.679688 12.117188 "/>
<path style=" stroke:none;fill-rule:nonzero;fill:rgb(77.254903%,19.607843%,20.784314%);fill-opacity:1;" d="M 8.027344 11.5 C 8.121094 11.523438 8.214844 11.550781 8.308594 11.570312 C 8.523438 11.613281 8.71875 11.691406 8.890625 11.828125 C 8.90625 11.839844 8.921875 11.847656 8.933594 11.855469 C 8.980469 11.808594 9.015625 11.757812 9.058594 11.714844 C 9.175781 11.609375 9.320312 11.582031 9.464844 11.582031 C 9.894531 11.582031 10.324219 11.589844 10.75 11.59375 C 11.019531 11.601562 11.285156 11.648438 11.542969 11.730469 C 11.632812 11.757812 11.714844 11.804688 11.777344 11.832031 C 11.832031 11.785156 11.886719 11.746094 11.941406 11.699219 C 12.046875 11.609375 12.175781 11.585938 12.304688 11.582031 C 12.863281 11.574219 13.421875 11.570312 13.988281 11.582031 C 14.183594 11.585938 14.382812 11.640625 14.476562 11.839844 C 14.527344 11.9375 14.558594 12.050781 14.5625 12.160156 C 14.578125 12.398438 14.574219 12.636719 14.5625 12.875 C 14.554688 13.046875 14.515625 13.214844 14.363281 13.339844 C 14.453125 13.429688 14.5 13.542969 14.503906 13.664062 C 14.515625 13.949219 14.515625 14.238281 14.503906 14.523438 C 14.503906 14.632812 14.46875 14.746094 14.386719 14.828125 C 14.367188 14.847656 14.347656 14.871094 14.335938 14.886719 C 14.394531 14.945312 14.460938 15 14.519531 15.0625 C 14.613281 15.160156 14.628906 15.292969 14.636719 15.417969 C 14.644531 15.664062 14.644531 15.910156 14.636719 16.152344 C 14.625 16.363281 14.554688 16.554688 14.355469 16.652344 C 14.265625 16.699219 14.160156 16.722656 14.0625 16.722656 C 13.476562 16.726562 12.890625 16.730469 12.304688 16.722656 C 12.128906 16.722656 11.953125 16.671875 11.84375 16.511719 C 11.542969 16.664062 11.21875 16.71875 10.886719 16.722656 C 10.398438 16.726562 9.914062 16.730469 9.425781 16.722656 C 9.238281 16.71875 9.0625 16.664062 8.960938 16.488281 C 8.953125 16.476562 8.9375 16.460938 8.925781 16.449219 C 8.519531 16.730469 8.066406 16.835938 7.582031 16.792969 C 7.101562 16.746094 6.664062 16.597656 6.359375 16.199219 C 6.273438 16.273438 6.195312 16.351562 6.113281 16.414062 C 5.585938 16.808594 5 16.875 4.375 16.734375 C 4.167969 16.6875 3.972656 16.625 3.792969 16.5 C 3.488281 16.292969 3.292969 16.015625 3.21875 15.652344 C 3.160156 15.375 3.125 15.101562 3.125 14.820312 C 3.125 14.300781 3.125 13.78125 3.125 13.261719 C 3.125 12.988281 3.152344 12.71875 3.257812 12.46875 C 3.449219 12 3.800781 11.703125 4.292969 11.578125 C 4.410156 11.546875 4.523438 11.523438 4.640625 11.496094 C 4.816406 11.496094 4.992188 11.496094 5.171875 11.496094 C 5.1875 11.5 5.207031 11.507812 5.222656 11.511719 C 5.542969 11.570312 5.859375 11.644531 6.117188 11.867188 C 6.199219 11.933594 6.277344 12.007812 6.359375 12.078125 C 6.574219 11.820312 6.894531 11.617188 7.230469 11.5625 C 7.324219 11.542969 7.410156 11.519531 7.5 11.496094 C 7.675781 11.496094 7.847656 11.496094 8.019531 11.496094 Z M 9.402344 16.199219 C 9.433594 16.199219 9.460938 16.199219 9.484375 16.199219 C 9.917969 16.199219 10.351562 16.199219 10.789062 16.199219 C 10.941406 16.199219 11.089844 16.191406 11.238281 16.171875 C 11.558594 16.136719 11.769531 15.960938 11.828125 15.675781 C 11.847656 15.585938 11.859375 15.492188 11.859375 15.398438 C 11.863281 14.929688 11.871094 14.464844 11.867188 13.996094 C 11.867188 13.625 11.859375 13.25 11.84375 12.875 C 11.832031 12.578125 11.679688 12.355469 11.394531 12.234375 C 11.207031 12.152344 11 12.132812 10.796875 12.128906 C 10.359375 12.117188 9.921875 12.117188 9.480469 12.109375 C 9.457031 12.109375 9.429688 12.109375 9.402344 12.109375 Z M 9.007812 14.050781 C 9 13.75 9 13.347656 8.972656 12.949219 C 8.945312 12.570312 8.742188 12.289062 8.390625 12.140625 C 7.992188 11.96875 7.578125 11.96875 7.175781 12.128906 C 6.863281 12.246094 6.660156 12.480469 6.589844 12.808594 C 6.554688 12.96875 6.546875 13.140625 6.542969 13.308594 C 6.535156 13.726562 6.535156 14.148438 6.539062 14.570312 C 6.539062 14.832031 6.546875 15.097656 6.570312 15.355469 C 6.605469 15.746094 6.820312 16.023438 7.183594 16.171875 C 7.476562 16.292969 7.78125 16.300781 8.09375 16.25 C 8.628906 16.164062 8.976562 15.769531 8.988281 15.234375 C 9 14.871094 9.003906 14.507812 9.015625 14.042969 Z M 6.175781 13.886719 C 6.175781 13.867188 6.179688 13.859375 6.179688 13.847656 C 6.171875 13.546875 6.167969 13.25 6.148438 12.949219 C 6.128906 12.589844 5.949219 12.316406 5.621094 12.167969 C 5.140625 11.953125 4.65625 11.949219 4.1875 12.191406 C 3.917969 12.324219 3.757812 12.554688 3.699219 12.84375 C 3.675781 12.96875 3.667969 13.09375 3.667969 13.21875 C 3.660156 13.726562 3.660156 14.226562 3.667969 14.734375 C 3.667969 14.957031 3.683594 15.183594 3.707031 15.40625 C 3.753906 15.820312 3.988281 16.078125 4.378906 16.199219 C 4.503906 16.238281 4.632812 16.261719 4.761719 16.273438 C 5.0625 16.300781 5.355469 16.273438 5.625 16.121094 C 5.898438 15.96875 6.085938 15.761719 6.136719 15.441406 C 6.179688 15.15625 6.1875 14.871094 6.179688 14.582031 C 6.179688 14.574219 6.175781 14.566406 6.171875 14.5625 L 5.117188 14.5625 C 5.117188 14.59375 5.117188 14.617188 5.117188 14.644531 C 5.117188 14.832031 5.117188 15.023438 5.117188 15.207031 C 5.117188 15.292969 5.105469 15.382812 5.089844 15.464844 C 5.074219 15.550781 5.015625 15.589844 4.925781 15.589844 C 4.835938 15.589844 4.78125 15.550781 4.761719 15.46875 C 4.746094 15.402344 4.734375 15.335938 4.734375 15.265625 C 4.734375 14.523438 4.734375 13.785156 4.734375 13.042969 C 4.734375 12.96875 4.746094 12.894531 4.761719 12.824219 C 4.78125 12.742188 4.84375 12.707031 4.9375 12.707031 C 5.03125 12.707031 5.078125 12.742188 5.09375 12.828125 C 5.109375 12.90625 5.117188 12.980469 5.117188 13.058594 C 5.121094 13.308594 5.117188 13.558594 5.117188 13.808594 C 5.117188 13.832031 5.117188 13.859375 5.121094 13.886719 Z M 12.265625 12.117188 L 12.265625 16.199219 L 14.101562 16.199219 L 14.101562 15.375 L 13.324219 15.375 C 13.324219 15.089844 13.324219 14.8125 13.324219 14.53125 C 13.324219 14.488281 13.355469 14.488281 13.386719 14.488281 C 13.5625 14.488281 13.738281 14.488281 13.910156 14.488281 C 13.980469 14.488281 13.996094 14.46875 13.992188 14.402344 C 13.988281 14.199219 13.988281 13.992188 13.992188 13.785156 C 13.992188 13.722656 13.976562 13.699219 13.914062 13.703125 C 13.742188 13.710938 13.570312 13.703125 13.402344 13.703125 C 13.375 13.703125 13.355469 13.703125 13.328125 13.699219 C 13.328125 13.449219 13.328125 13.210938 13.328125 12.96875 C 13.328125 12.921875 13.363281 12.933594 13.390625 12.933594 C 13.582031 12.933594 13.773438 12.933594 13.960938 12.933594 C 13.988281 12.933594 14.015625 12.933594 14.035156 12.929688 L 14.035156 12.113281 L 12.265625 12.113281 Z M 12.265625 12.117188 "/>
<path style=" stroke:none;fill-rule:nonzero;fill:rgb(77.254903%,19.607843%,20.784314%);fill-opacity:1;" d="M 16.398438 13.261719 C 16.398438 13.132812 16.398438 13.007812 16.398438 12.875 C 16.398438 12.824219 16.417969 12.8125 16.464844 12.816406 C 16.644531 12.832031 16.710938 12.886719 16.71875 13.070312 C 16.722656 13.230469 16.71875 13.394531 16.703125 13.554688 C 16.691406 13.671875 16.539062 13.753906 16.425781 13.71875 C 16.410156 13.710938 16.402344 13.683594 16.402344 13.660156 C 16.402344 13.527344 16.402344 13.394531 16.402344 13.261719 Z M 16.398438 13.261719 "/>
<path style=" stroke:none;fill-rule:nonzero;fill:rgb(77.254903%,19.607843%,20.784314%);fill-opacity:1;" d="M 19.164062 14.152344 C 19.164062 13.792969 19.164062 13.429688 19.164062 13.070312 C 19.164062 12.988281 19.175781 12.902344 19.191406 12.820312 C 19.207031 12.746094 19.261719 12.710938 19.335938 12.710938 C 19.410156 12.710938 19.457031 12.746094 19.472656 12.820312 C 19.484375 12.894531 19.492188 12.96875 19.492188 13.039062 C 19.492188 13.761719 19.492188 14.480469 19.492188 15.203125 C 19.492188 15.292969 19.484375 15.378906 19.46875 15.46875 C 19.457031 15.554688 19.40625 15.59375 19.324219 15.589844 C 19.242188 15.589844 19.191406 15.550781 19.179688 15.464844 C 19.167969 15.375 19.164062 15.289062 19.160156 15.199219 C 19.160156 14.851562 19.160156 14.503906 19.160156 14.152344 Z M 19.164062 14.152344 "/>
<path style=" stroke:none;fill-rule:nonzero;fill:rgb(77.254903%,19.607843%,20.784314%);fill-opacity:1;" d="M 10.464844 15.5 L 10.464844 15.410156 C 10.464844 14.574219 10.464844 13.738281 10.464844 12.902344 C 10.464844 12.808594 10.464844 12.808594 10.558594 12.816406 C 10.738281 12.832031 10.796875 12.894531 10.796875 13.074219 C 10.796875 13.765625 10.796875 14.453125 10.796875 15.144531 C 10.796875 15.199219 10.789062 15.253906 10.78125 15.3125 C 10.757812 15.429688 10.71875 15.46875 10.597656 15.488281 C 10.558594 15.492188 10.519531 15.496094 10.464844 15.503906 Z M 10.464844 15.5 "/>
<path style=" stroke:none;fill-rule:nonzero;fill:rgb(77.254903%,19.607843%,20.784314%);fill-opacity:1;" d="M 7.601562 14.148438 C 7.601562 13.792969 7.601562 13.433594 7.601562 13.074219 C 7.601562 12.992188 7.613281 12.90625 7.628906 12.824219 C 7.640625 12.75 7.695312 12.710938 7.769531 12.710938 C 7.84375 12.710938 7.894531 12.746094 7.90625 12.828125 C 7.921875 12.898438 7.929688 12.972656 7.929688 13.042969 C 7.929688 13.765625 7.929688 14.488281 7.929688 15.207031 C 7.929688 15.300781 7.917969 15.390625 7.90625 15.476562 C 7.890625 15.558594 7.839844 15.597656 7.757812 15.59375 C 7.683594 15.59375 7.632812 15.558594 7.621094 15.476562 C 7.609375 15.382812 7.601562 15.292969 7.601562 15.199219 C 7.601562 14.847656 7.601562 14.5 7.601562 14.148438 Z M 7.601562 14.148438 "/>
<path style=" stroke:none;fill-rule:nonzero;fill:rgb(100%,100%,100%);fill-opacity:1;" d="M 16.058594 23.089844 C 15.414062 23.089844 14.8125 22.835938 14.359375 22.382812 C 13.902344 21.925781 13.65625 21.320312 13.65625 20.667969 C 13.65625 19.355469 14.742188 18.285156 16.078125 18.285156 C 16.726562 18.285156 17.328125 18.542969 17.78125 19.003906 C 18.234375 19.464844 18.480469 20.074219 18.472656 20.71875 C 18.457031 22.027344 17.375 23.09375 16.066406 23.09375 L 16.058594 23.09375 Z M 10.867188 23.089844 C 10.222656 23.089844 9.617188 22.835938 9.164062 22.378906 C 8.714844 21.925781 8.464844 21.316406 8.464844 20.664062 C 8.464844 19.351562 9.554688 18.28125 10.890625 18.28125 C 12.210938 18.28125 13.28125 19.363281 13.28125 20.683594 C 13.28125 21.328125 13.03125 21.933594 12.574219 22.386719 C 12.117188 22.839844 11.511719 23.089844 10.867188 23.089844 Z M 21.234375 23.089844 C 20.597656 23.089844 19.996094 22.835938 19.546875 22.378906 C 19.089844 21.917969 18.84375 21.308594 18.84375 20.660156 C 18.855469 19.347656 19.9375 18.285156 21.257812 18.285156 C 22.578125 18.285156 23.664062 19.367188 23.664062 20.695312 C 23.664062 22.015625 22.578125 23.089844 21.246094 23.089844 Z M 21.234375 23.089844 "/>
<path style=" stroke:none;fill-rule:nonzero;fill:rgb(100%,100%,100%);fill-opacity:1;" d="M 16.058594 22.921875 C 17.289062 22.921875 18.289062 21.9375 18.304688 20.714844 C 18.320312 19.464844 17.3125 18.457031 16.085938 18.453125 C 14.835938 18.449219 13.824219 19.445312 13.824219 20.667969 C 13.824219 21.917969 14.820312 22.921875 16.0625 22.921875 Z M 21.253906 18.449219 C 20.027344 18.449219 19.019531 19.445312 19.011719 20.660156 C 19.003906 21.910156 20.011719 22.917969 21.234375 22.921875 C 22.484375 22.925781 23.492188 21.929688 23.492188 20.695312 C 23.492188 19.453125 22.496094 18.453125 21.253906 18.453125 Z M 13.109375 20.683594 C 13.109375 19.457031 12.109375 18.449219 10.886719 18.449219 C 9.640625 18.449219 8.628906 19.441406 8.628906 20.664062 C 8.628906 21.917969 9.625 22.921875 10.863281 22.921875 C 12.109375 22.921875 13.109375 21.925781 13.109375 20.6875 Z M 13.109375 20.683594 "/>
<path style=" stroke:none;fill-rule:nonzero;fill:rgb(12.54902%,12.54902%,12.54902%);fill-opacity:1;" d="M 16.058594 22.921875 C 14.820312 22.921875 13.820312 21.917969 13.820312 20.667969 C 13.820312 19.441406 14.832031 18.449219 16.082031 18.453125 C 17.308594 18.457031 18.316406 19.464844 18.300781 20.714844 C 18.289062 21.9375 17.289062 22.925781 16.058594 22.921875 Z M 16.058594 22.875 C 17.265625 22.875 18.253906 21.890625 18.253906 20.6875 C 18.253906 19.480469 17.265625 18.496094 16.050781 18.5 C 14.847656 18.5 13.867188 19.488281 13.867188 20.6875 C 13.867188 21.894531 14.851562 22.875 16.058594 22.875 Z M 16.058594 22.875 "/>
<path style=" stroke:none;fill-rule:nonzero;fill:rgb(12.54902%,9.411765%,7.843138%);fill-opacity:1;" d="M 21.253906 18.449219 C 22.496094 18.449219 23.492188 19.449219 23.492188 20.695312 C 23.492188 21.925781 22.484375 22.925781 21.234375 22.917969 C 20.011719 22.914062 19.003906 21.910156 19.011719 20.65625 C 19.019531 19.445312 20.03125 18.449219 21.253906 18.449219 Z M 21.253906 18.496094 C 20.046875 18.5 19.074219 19.464844 19.058594 20.65625 C 19.046875 21.886719 20.03125 22.859375 21.222656 22.871094 C 22.453125 22.886719 23.433594 21.90625 23.441406 20.707031 C 23.449219 19.484375 22.46875 18.496094 21.25 18.496094 Z M 21.253906 18.496094 "/>
<path style=" stroke:none;fill-rule:nonzero;fill:rgb(9.019608%,8.627451%,10.980392%);fill-opacity:1;" d="M 13.109375 20.683594 C 13.109375 21.921875 12.109375 22.917969 10.863281 22.917969 C 9.625 22.917969 8.628906 21.914062 8.628906 20.660156 C 8.628906 19.4375 9.644531 18.449219 10.886719 18.449219 C 12.109375 18.449219 13.109375 19.457031 13.109375 20.679688 Z M 10.875 18.496094 C 9.664062 18.496094 8.699219 19.464844 8.675781 20.640625 C 8.652344 21.886719 9.65625 22.851562 10.828125 22.875 C 12.070312 22.898438 13.042969 21.898438 13.0625 20.722656 C 13.082031 19.484375 12.074219 18.496094 10.875 18.5 Z M 10.875 18.496094 "/>
<path style=" stroke:none;fill-rule:nonzero;fill:rgb(99.215686%,100%,100%);fill-opacity:1;" d="M 16.0625 22.875 C 14.855469 22.875 13.871094 21.890625 13.871094 20.6875 C 13.871094 19.484375 14.855469 18.5 16.054688 18.5 C 17.273438 18.5 18.257812 19.480469 18.257812 20.6875 C 18.257812 21.894531 17.273438 22.875 16.066406 22.875 Z M 17.644531 21.15625 C 17.375 21 17.105469 20.847656 16.832031 20.695312 C 17.105469 20.53125 17.375 20.371094 17.644531 20.214844 C 17.515625 19.992188 17.390625 19.773438 17.261719 19.558594 C 16.984375 19.714844 16.714844 19.875 16.429688 20.039062 L 16.429688 19.097656 L 15.6875 19.097656 L 15.6875 20.039062 C 15.414062 19.875 15.144531 19.71875 14.875 19.558594 C 14.746094 19.777344 14.621094 19.992188 14.492188 20.214844 C 14.765625 20.375 15.03125 20.53125 15.304688 20.695312 C 15.03125 20.851562 14.765625 21 14.492188 21.15625 C 14.621094 21.375 14.746094 21.59375 14.875 21.8125 C 15.144531 21.652344 15.414062 21.492188 15.691406 21.332031 L 15.691406 22.289062 L 16.453125 22.289062 L 16.453125 21.335938 C 16.726562 21.496094 16.996094 21.652344 17.265625 21.8125 C 17.394531 21.589844 17.519531 21.375 17.648438 21.15625 Z M 17.644531 21.15625 "/>
<path style=" stroke:none;fill-rule:nonzero;fill:rgb(100%,20%,20%);fill-opacity:1;" d="M 21.257812 18.496094 C 22.472656 18.496094 23.453125 19.484375 23.445312 20.707031 C 23.4375 21.90625 22.457031 22.886719 21.230469 22.871094 C 20.035156 22.859375 19.050781 21.886719 19.066406 20.65625 C 19.078125 19.464844 20.050781 18.5 21.261719 18.496094 Z M 21.167969 19.109375 C 21.265625 19.335938 21.238281 19.488281 21.160156 19.675781 C 21.128906 19.753906 21.089844 19.828125 21.046875 19.902344 C 20.964844 20.058594 20.871094 20.203125 20.800781 20.363281 C 20.664062 20.683594 20.695312 21.007812 20.808594 21.332031 C 20.816406 21.351562 20.820312 21.378906 20.828125 21.402344 C 20.660156 21.257812 20.5625 21.074219 20.558594 20.851562 C 20.539062 20.875 20.527344 20.898438 20.519531 20.925781 C 20.472656 21.164062 20.445312 21.402344 20.53125 21.640625 C 20.59375 21.824219 20.6875 21.992188 20.84375 22.117188 C 21.011719 22.246094 21.195312 22.324219 21.410156 22.269531 C 21.84375 22.164062 22.128906 21.660156 22.015625 21.214844 C 21.964844 21.019531 21.871094 20.84375 21.761719 20.671875 C 21.667969 20.519531 21.648438 20.363281 21.707031 20.195312 C 21.714844 20.171875 21.71875 20.148438 21.722656 20.128906 C 21.585938 20.269531 21.445312 20.40625 21.464844 20.628906 C 21.445312 20.609375 21.4375 20.589844 21.429688 20.570312 C 21.371094 20.378906 21.371094 20.1875 21.445312 20.003906 C 21.492188 19.871094 21.527344 19.742188 21.503906 19.605469 C 21.46875 19.394531 21.351562 19.234375 21.167969 19.109375 Z M 21.167969 19.109375 "/>
<path style=" stroke:none;fill-rule:nonzero;fill:rgb(20%,0%,80.000001%);fill-opacity:1;" d="M 10.875 18.492188 C 12.074219 18.492188 13.082031 19.480469 13.0625 20.71875 C 13.042969 21.894531 12.070312 22.890625 10.828125 22.871094 C 9.65625 22.851562 8.65625 21.878906 8.675781 20.632812 C 8.699219 19.460938 9.664062 18.492188 10.875 18.492188 Z M 10.875 18.492188 C 12.074219 18.492188 13.082031 19.480469 13.0625 20.71875 C 13.042969 21.894531 12.070312 22.890625 10.828125 22.871094 C 9.65625 22.851562 8.65625 21.878906 8.675781 20.632812 C 8.699219 19.460938 9.664062 18.492188 10.875 18.492188 Z M 10.859375 19.089844 C 10.6875 19.257812 10.488281 19.371094 10.257812 19.429688 C 10.03125 19.492188 9.796875 19.5 9.570312 19.496094 C 9.574219 19.652344 9.585938 19.796875 9.585938 19.945312 C 9.585938 20.230469 9.574219 20.511719 9.574219 20.796875 C 9.574219 20.992188 9.605469 21.183594 9.671875 21.367188 C 9.804688 21.734375 10.066406 21.984375 10.40625 22.164062 C 10.582031 22.257812 10.773438 22.320312 10.976562 22.28125 C 11.460938 22.191406 11.816406 21.914062 12.035156 21.472656 C 12.191406 21.160156 12.191406 20.816406 12.183594 20.472656 C 12.179688 20.214844 12.171875 19.960938 12.167969 19.703125 C 12.167969 19.636719 12.171875 19.574219 12.179688 19.503906 C 11.691406 19.519531 11.246094 19.410156 10.859375 19.089844 Z M 10.859375 19.089844 "/>
<path style=" stroke:none;fill-rule:nonzero;fill:rgb(5.490196%,5.490196%,5.490196%);fill-opacity:1;" d="M 17.644531 21.15625 C 17.519531 21.375 17.394531 21.589844 17.261719 21.8125 C 16.992188 21.652344 16.726562 21.496094 16.449219 21.335938 L 16.449219 22.289062 L 15.6875 22.289062 L 15.6875 21.332031 C 15.414062 21.492188 15.144531 21.648438 14.871094 21.8125 C 14.746094 21.59375 14.617188 21.375 14.488281 21.15625 C 14.761719 21 15.027344 20.847656 15.300781 20.695312 C 15.03125 20.53125 14.765625 20.375 14.488281 20.214844 C 14.617188 19.992188 14.742188 19.777344 14.871094 19.558594 C 15.144531 19.714844 15.410156 19.875 15.683594 20.039062 L 15.683594 19.097656 L 16.429688 19.097656 L 16.429688 20.039062 C 16.710938 19.875 16.984375 19.714844 17.261719 19.558594 C 17.386719 19.777344 17.511719 19.992188 17.640625 20.214844 C 17.371094 20.371094 17.105469 20.53125 16.828125 20.695312 C 17.105469 20.851562 17.371094 21 17.640625 21.15625 Z M 15.996094 20.664062 C 15.996094 20.664062 16.015625 20.667969 16.023438 20.675781 C 16.039062 20.660156 16.046875 20.636719 16.0625 20.625 C 16.125 20.578125 16.144531 20.519531 16.144531 20.445312 C 16.144531 20.289062 16.148438 20.132812 16.152344 19.972656 C 16.152344 19.910156 16.152344 19.84375 16.152344 19.785156 C 16.113281 19.800781 16.078125 19.828125 16.035156 19.835938 C 15.996094 19.851562 15.984375 19.871094 15.984375 19.910156 C 15.992188 20.082031 15.996094 20.253906 15.996094 20.421875 C 15.996094 20.503906 15.996094 20.585938 15.996094 20.664062 Z M 16.195312 20.285156 C 16.195312 20.335938 16.195312 20.382812 16.195312 20.425781 C 16.199219 20.511719 16.167969 20.574219 16.105469 20.628906 C 16.050781 20.671875 15.996094 20.714844 15.941406 20.761719 C 15.859375 20.828125 15.871094 20.972656 15.964844 21.03125 C 15.984375 20.9375 16.011719 20.898438 16.089844 20.84375 C 16.132812 20.8125 16.175781 20.789062 16.214844 20.753906 C 16.367188 20.632812 16.355469 20.394531 16.195312 20.28125 Z M 15.941406 20.296875 C 15.957031 20.1875 15.941406 20.089844 15.882812 19.996094 C 15.839844 19.921875 15.863281 19.871094 15.945312 19.835938 C 15.984375 19.820312 16.03125 19.808594 16.070312 19.789062 C 16.09375 19.777344 16.125 19.746094 16.121094 19.726562 C 16.117188 19.703125 16.089844 19.671875 16.0625 19.660156 C 15.96875 19.621094 15.847656 19.675781 15.800781 19.773438 C 15.722656 19.929688 15.792969 20.199219 15.941406 20.300781 Z M 16.179688 21.054688 C 16.179688 21.054688 16.175781 21.070312 16.175781 21.078125 C 16.175781 21.207031 16.125 21.296875 16.023438 21.371094 C 15.976562 21.40625 15.949219 21.464844 15.929688 21.519531 C 15.90625 21.578125 15.9375 21.652344 15.976562 21.679688 C 15.976562 21.675781 15.976562 21.667969 15.976562 21.664062 C 15.976562 21.574219 16.015625 21.507812 16.09375 21.457031 C 16.246094 21.363281 16.28125 21.171875 16.175781 21.054688 Z M 16.125 20.863281 C 16.070312 20.898438 16.015625 20.929688 16.015625 20.992188 C 16.007812 21.101562 16.015625 21.207031 16.015625 21.324219 C 16.082031 21.289062 16.125 21.25 16.125 21.1875 C 16.128906 21.082031 16.125 20.976562 16.125 20.863281 Z M 16.15625 19.664062 C 16.15625 19.59375 16.15625 19.515625 16.15625 19.4375 C 16.15625 19.382812 16.117188 19.363281 16.070312 19.363281 C 16.023438 19.363281 15.984375 19.378906 15.980469 19.429688 C 15.976562 19.488281 15.980469 19.550781 15.980469 19.601562 C 16.046875 19.621094 16.101562 19.640625 16.15625 19.660156 Z M 16.117188 21.492188 C 16.046875 21.519531 16.023438 21.566406 16.023438 21.625 C 16.023438 21.726562 16.023438 21.824219 16.027344 21.925781 C 16.027344 21.953125 16.03125 21.984375 16.039062 22.011719 C 16.042969 22.027344 16.058594 22.035156 16.085938 22.058594 C 16.078125 22.019531 16.070312 22 16.074219 21.992188 C 16.136719 21.832031 16.097656 21.667969 16.117188 21.492188 Z M 16.117188 21.976562 C 16.199219 21.917969 16.214844 21.835938 16.160156 21.777344 C 16.144531 21.839844 16.132812 21.902344 16.117188 21.976562 Z M 16.117188 21.976562 "/>
<path style=" stroke:none;fill-rule:nonzero;fill:rgb(100%,99.215686%,100%);fill-opacity:1;" d="M 21.167969 19.109375 C 21.351562 19.234375 21.46875 19.394531 21.503906 19.605469 C 21.527344 19.742188 21.492188 19.871094 21.445312 20.003906 C 21.375 20.191406 21.371094 20.382812 21.429688 20.570312 C 21.4375 20.589844 21.445312 20.609375 21.464844 20.628906 C 21.445312 20.410156 21.589844 20.269531 21.722656 20.128906 C 21.71875 20.148438 21.714844 20.171875 21.707031 20.195312 C 21.648438 20.363281 21.667969 20.519531 21.761719 20.671875 C 21.871094 20.84375 21.964844 21.019531 22.015625 21.214844 C 22.128906 21.660156 21.84375 22.164062 21.410156 22.269531 C 21.195312 22.324219 21.011719 22.246094 20.84375 22.117188 C 20.683594 21.992188 20.59375 21.824219 20.53125 21.640625 C 20.445312 21.398438 20.472656 21.164062 20.519531 20.925781 C 20.527344 20.898438 20.539062 20.875 20.558594 20.851562 C 20.5625 21.074219 20.660156 21.253906 20.828125 21.402344 C 20.820312 21.378906 20.816406 21.355469 20.808594 21.332031 C 20.695312 21.011719 20.664062 20.683594 20.800781 20.363281 C 20.871094 20.203125 20.964844 20.058594 21.046875 19.902344 C 21.089844 19.828125 21.128906 19.753906 21.160156 19.675781 C 21.238281 19.488281 21.265625 19.335938 21.167969 19.109375 Z M 21.167969 19.109375 "/>
<path style=" stroke:none;fill-rule:nonzero;fill:rgb(97.254902%,97.254902%,97.254902%);fill-opacity:1;" d="M 15.996094 20.664062 C 15.996094 20.585938 15.996094 20.503906 15.996094 20.421875 C 15.992188 20.253906 15.988281 20.082031 15.984375 19.910156 C 15.984375 19.871094 15.992188 19.847656 16.03125 19.835938 C 16.074219 19.828125 16.113281 19.800781 16.148438 19.785156 C 16.148438 19.84375 16.148438 19.910156 16.148438 19.972656 C 16.148438 20.132812 16.140625 20.289062 16.140625 20.445312 C 16.140625 20.519531 16.121094 20.578125 16.058594 20.625 C 16.042969 20.640625 16.035156 20.660156 16.023438 20.675781 C 16.015625 20.671875 16.003906 20.667969 15.996094 20.664062 Z M 15.996094 20.664062 "/>
<path style=" stroke:none;fill-rule:nonzero;fill:rgb(97.647059%,97.647059%,97.647059%);fill-opacity:1;" d="M 16.191406 20.285156 C 16.355469 20.398438 16.363281 20.640625 16.210938 20.761719 C 16.171875 20.789062 16.128906 20.816406 16.089844 20.847656 C 16.011719 20.902344 15.980469 20.945312 15.960938 21.035156 C 15.867188 20.976562 15.855469 20.832031 15.941406 20.765625 C 15.996094 20.722656 16.046875 20.679688 16.101562 20.632812 C 16.164062 20.582031 16.199219 20.511719 16.191406 20.429688 C 16.191406 20.386719 16.191406 20.34375 16.191406 20.289062 Z M 16.191406 20.285156 "/>
<path style=" stroke:none;fill-rule:nonzero;fill:rgb(96.470588%,96.078432%,96.470588%);fill-opacity:1;" d="M 15.941406 20.296875 C 15.792969 20.195312 15.71875 19.925781 15.796875 19.769531 C 15.847656 19.675781 15.964844 19.621094 16.058594 19.660156 C 16.085938 19.667969 16.117188 19.699219 16.117188 19.726562 C 16.117188 19.742188 16.089844 19.773438 16.066406 19.789062 C 16.027344 19.808594 15.984375 19.816406 15.941406 19.835938 C 15.859375 19.867188 15.835938 19.917969 15.878906 19.992188 C 15.9375 20.085938 15.953125 20.1875 15.941406 20.296875 Z M 15.941406 20.296875 "/>
<path style=" stroke:none;fill-rule:nonzero;fill:rgb(96.470588%,96.078432%,96.470588%);fill-opacity:1;" d="M 16.179688 21.054688 C 16.285156 21.171875 16.246094 21.363281 16.097656 21.457031 C 16.019531 21.507812 15.976562 21.570312 15.980469 21.664062 C 15.980469 21.667969 15.980469 21.675781 15.980469 21.679688 C 15.941406 21.648438 15.910156 21.578125 15.929688 21.519531 C 15.949219 21.464844 15.980469 21.40625 16.023438 21.371094 C 16.128906 21.296875 16.179688 21.207031 16.179688 21.078125 C 16.179688 21.070312 16.179688 21.066406 16.183594 21.054688 Z M 16.179688 21.054688 "/>
<path style=" stroke:none;fill-rule:nonzero;fill:rgb(96.470588%,96.470588%,96.470588%);fill-opacity:1;" d="M 16.125 20.863281 C 16.125 20.976562 16.125 21.082031 16.125 21.1875 C 16.125 21.25 16.078125 21.289062 16.011719 21.324219 C 16.011719 21.207031 16.003906 21.101562 16.011719 20.992188 C 16.015625 20.929688 16.070312 20.898438 16.121094 20.863281 Z M 16.125 20.863281 "/>
<path style=" stroke:none;fill-rule:nonzero;fill:rgb(98.823529%,98.823529%,98.823529%);fill-opacity:1;" d="M 16.15625 19.664062 C 16.101562 19.644531 16.042969 19.625 15.980469 19.605469 C 15.980469 19.554688 15.976562 19.492188 15.980469 19.429688 C 15.984375 19.382812 16.023438 19.363281 16.070312 19.363281 C 16.113281 19.363281 16.152344 19.382812 16.15625 19.4375 C 16.15625 19.519531 16.15625 19.597656 16.15625 19.667969 Z M 16.15625 19.664062 "/>
<path style=" stroke:none;fill-rule:nonzero;fill:rgb(97.647059%,97.647059%,97.647059%);fill-opacity:1;" d="M 16.117188 21.492188 C 16.097656 21.664062 16.136719 21.828125 16.074219 21.988281 C 16.070312 22 16.078125 22.019531 16.085938 22.054688 C 16.0625 22.03125 16.042969 22.023438 16.039062 22.011719 C 16.03125 21.984375 16.027344 21.953125 16.027344 21.925781 C 16.027344 21.824219 16.023438 21.722656 16.023438 21.621094 C 16.023438 21.5625 16.046875 21.519531 16.117188 21.488281 Z M 16.117188 21.492188 "/>
<path style=" stroke:none;fill-rule:nonzero;fill:rgb(92.156863%,92.156863%,92.156863%);fill-opacity:1;" d="M 16.117188 21.976562 C 16.132812 21.90625 16.144531 21.84375 16.160156 21.777344 C 16.214844 21.835938 16.199219 21.917969 16.117188 21.976562 Z M 16.117188 21.976562 "/>
<path style=" stroke:none;fill-rule:nonzero;fill:rgb(100%,99.215686%,100%);fill-opacity:1;" d="M 12.1875 20.476562 C 12.183594 20.21875 12.171875 19.964844 12.171875 19.707031 C 12.171875 19.640625 12.175781 19.578125 12.183594 19.507812 C 11.691406 19.519531 11.25 19.410156 10.863281 19.09375 C 10.691406 19.261719 10.488281 19.375 10.257812 19.433594 C 10.035156 19.492188 9.800781 19.503906 9.574219 19.5 C 9.578125 19.652344 9.589844 19.796875 9.589844 19.945312 C 9.589844 20.234375 9.578125 20.515625 9.578125 20.800781 C 9.578125 20.996094 9.609375 21.1875 9.675781 21.371094 C 9.804688 21.738281 10.070312 21.988281 10.40625 22.167969 C 10.585938 22.261719 10.777344 22.324219 10.980469 22.285156 C 11.464844 22.195312 11.820312 21.917969 12.035156 21.476562 C 12.191406 21.160156 12.191406 20.816406 12.1875 20.476562 Z M 11.90625 20.425781 C 11.734375 20.566406 11.566406 20.707031 11.394531 20.851562 C 11.367188 20.871094 11.359375 20.890625 11.367188 20.929688 C 11.421875 21.152344 11.46875 21.375 11.523438 21.59375 C 11.523438 21.605469 11.523438 21.617188 11.527344 21.640625 C 11.304688 21.492188 11.089844 21.347656 10.878906 21.203125 C 10.675781 21.34375 10.472656 21.480469 10.257812 21.628906 C 10.28125 21.496094 10.304688 21.378906 10.328125 21.261719 C 10.351562 21.148438 10.367188 21.035156 10.394531 20.925781 C 10.402344 20.886719 10.394531 20.867188 10.363281 20.84375 C 10.191406 20.710938 10.019531 20.574219 9.851562 20.441406 C 9.839844 20.433594 9.832031 20.429688 9.816406 20.410156 C 9.921875 20.402344 10.015625 20.394531 10.109375 20.386719 C 10.261719 20.375 10.414062 20.363281 10.5625 20.347656 C 10.582031 20.347656 10.601562 20.316406 10.609375 20.296875 C 10.691406 20.09375 10.773438 19.890625 10.855469 19.6875 C 10.859375 19.671875 10.867188 19.660156 10.878906 19.636719 C 10.933594 19.78125 10.988281 19.914062 11.042969 20.046875 C 11.078125 20.136719 11.113281 20.222656 11.144531 20.3125 C 11.15625 20.339844 11.167969 20.355469 11.203125 20.355469 C 11.441406 20.371094 11.679688 20.382812 11.921875 20.398438 C 11.914062 20.414062 11.910156 20.421875 11.902344 20.429688 Z M 11.90625 20.425781 "/>
<path style=" stroke:none;fill-rule:nonzero;fill:rgb(5.490196%,5.490196%,5.490196%);fill-opacity:1;" d="M 16.058594 19.695312 C 16.058594 19.683594 16.050781 19.675781 16.039062 19.675781 C 16.027344 19.675781 16.019531 19.683594 16.019531 19.695312 C 16.019531 19.703125 16.027344 19.714844 16.039062 19.714844 C 16.050781 19.714844 16.058594 19.703125 16.058594 19.695312 Z M 16.058594 19.695312 "/>
</g>
</svg>
